<mxfile host="Electron" agent="Mozilla/5.0 (Windows NT 10.0; Win64; x64) AppleWebKit/537.36 (KHTML, like Gecko) draw.io/24.7.5 Chrome/126.0.6478.183 Electron/31.3.0 Safari/537.36" version="24.7.5">
  <diagram name="Page-1" id="IRmip-cxfl_dYx1zVbv8">
    <mxGraphModel dx="1050" dy="638" grid="1" gridSize="10" guides="1" tooltips="1" connect="1" arrows="1" fold="1" page="1" pageScale="1" pageWidth="827" pageHeight="1169" math="0" shadow="0">
      <root>
        <mxCell id="0" />
        <mxCell id="1" parent="0" />
        <mxCell id="MQac5VMawOJbnCCiq_Lp-1" value="" style="triangle;whiteSpace=wrap;html=1;dashed=0;direction=south;fillColor=#e51400;fontColor=#ffffff;strokeColor=#000000;strokeWidth=2;fontFamily=Kufam;fontSource=https%3A%2F%2Ffonts.googleapis.com%2Fcss%3Ffamily%3DKufam;verticalAlign=top;spacingTop=5;fontStyle=1;fontSize=16;" parent="1" vertex="1">
          <mxGeometry x="720" y="20" width="87" height="68.13" as="geometry" />
        </mxCell>
        <mxCell id="MQac5VMawOJbnCCiq_Lp-3" value="Operating System Sheet" style="shape=hexagon;perimeter=hexagonPerimeter2;whiteSpace=wrap;fixedSize=1;size=16;fillColor=#ffcccc;strokeColor=#36393d;fontFamily=ADLaM Display;fontSize=20;strokeWidth=2;align=center;spacingLeft=0;spacingBottom=5;fillStyle=hachure;fontStyle=1;rounded=1;arcSize=14;fontSource=https%3A%2F%2Ffonts.googleapis.com%2Fcss%3Ffamily%3DADLaM%2BDisplay;" parent="1" vertex="1">
          <mxGeometry x="264" y="70" width="299.32" height="57.14" as="geometry" />
        </mxCell>
        <mxCell id="MQac5VMawOJbnCCiq_Lp-10" value="" style="group" parent="1" vertex="1" connectable="0">
          <mxGeometry x="50" y="400" width="260" height="320" as="geometry" />
        </mxCell>
        <mxCell id="MQac5VMawOJbnCCiq_Lp-11" value="&lt;div style=&quot;color: rgb(255, 255, 255); white-space: pre; font-size: 15px;&quot;&gt;&lt;pre style=&quot;font-size: 15px;&quot;&gt;&lt;span style=&quot;color: rgb(114, 159, 207); font-size: 15px;&quot;&gt;&lt;span style=&quot;font-size: 15px;&quot;&gt;..&lt;/span&gt;&lt;/span&gt;&lt;br style=&quot;font-size: 15px;&quot;&gt;└── &lt;span style=&quot;color: rgb(114, 159, 207); font-size: 15px;&quot;&gt;&lt;span style=&quot;font-size: 15px;&quot;&gt;my_directories&lt;/span&gt;&lt;/span&gt;&lt;br style=&quot;font-size: 15px;&quot;&gt;    ├── &lt;span style=&quot;color: rgb(114, 159, 207); font-size: 15px;&quot;&gt;&lt;span style=&quot;font-size: 15px;&quot;&gt;dir1&lt;/span&gt;&lt;/span&gt;&lt;br style=&quot;font-size: 15px;&quot;&gt;    │&amp;nbsp;&amp;nbsp; ├── f1&lt;br style=&quot;font-size: 15px;&quot;&gt;    │&amp;nbsp;&amp;nbsp; └── f2&lt;br style=&quot;font-size: 15px;&quot;&gt;    ├── &lt;span style=&quot;color: rgb(114, 159, 207); font-size: 15px;&quot;&gt;&lt;span style=&quot;font-size: 15px;&quot;&gt;dir2&lt;/span&gt;&lt;/span&gt;&lt;br style=&quot;font-size: 15px;&quot;&gt;    │&amp;nbsp;&amp;nbsp; ├── f3&lt;br style=&quot;font-size: 15px;&quot;&gt;    │&amp;nbsp;&amp;nbsp; └── f4&lt;br style=&quot;font-size: 15px;&quot;&gt;    └── &lt;span style=&quot;color: rgb(114, 159, 207); font-size: 15px;&quot;&gt;&lt;span style=&quot;font-size: 15px;&quot;&gt;dir3&lt;/span&gt;&lt;/span&gt;&lt;br style=&quot;font-size: 15px;&quot;&gt;        └── &lt;span style=&quot;color: rgb(114, 159, 207); font-size: 15px;&quot;&gt;&lt;span style=&quot;font-size: 15px;&quot;&gt;dir4&lt;/span&gt;&lt;/span&gt;&lt;br style=&quot;font-size: 15px;&quot;&gt;            └── f5&lt;br style=&quot;font-size: 15px;&quot;&gt;&lt;br style=&quot;font-size: 15px;&quot;&gt;6 directories, 5 files&lt;br style=&quot;font-size: 15px;&quot;&gt;&lt;/pre&gt;&lt;/div&gt;" style="rounded=1;whiteSpace=wrap;html=1;arcSize=7;strokeWidth=2;fillColor=#404552;strokeColor=none;align=left;verticalAlign=top;spacing=15;spacingTop=31;fontSize=15;fontFamily=Mina;fontStyle=1;" parent="MQac5VMawOJbnCCiq_Lp-10" vertex="1">
          <mxGeometry width="260" height="320" as="geometry" />
        </mxCell>
        <mxCell id="MQac5VMawOJbnCCiq_Lp-12" value="" style="group" parent="MQac5VMawOJbnCCiq_Lp-10" vertex="1" connectable="0">
          <mxGeometry x="13" y="20.80000000000001" width="72" height="22.88" as="geometry" />
        </mxCell>
        <mxCell id="MQac5VMawOJbnCCiq_Lp-13" value="&amp;nbsp; &amp;nbsp; &amp;nbsp; &amp;nbsp; &amp;nbsp; &amp;nbsp; &amp;nbsp; " style="strokeWidth=2;html=1;shape=mxgraph.flowchart.start_2;whiteSpace=wrap;fillColor=#ff5f56;strokeColor=none;" parent="MQac5VMawOJbnCCiq_Lp-12" vertex="1">
          <mxGeometry x="2" y="2.0799999999999996" width="16" height="16.639999999999997" as="geometry" />
        </mxCell>
        <mxCell id="MQac5VMawOJbnCCiq_Lp-14" value="&amp;nbsp; &amp;nbsp; &amp;nbsp; &amp;nbsp; &amp;nbsp; &amp;nbsp; &amp;nbsp; " style="strokeWidth=2;html=1;shape=mxgraph.flowchart.start_2;whiteSpace=wrap;fillColor=#ffbd2e;strokeColor=none;" parent="MQac5VMawOJbnCCiq_Lp-12" vertex="1">
          <mxGeometry x="27" y="2.0799999999999996" width="16" height="16.639999999999997" as="geometry" />
        </mxCell>
        <mxCell id="MQac5VMawOJbnCCiq_Lp-15" value="&amp;nbsp; &amp;nbsp; &amp;nbsp; &amp;nbsp; &amp;nbsp; &amp;nbsp; &amp;nbsp; " style="strokeWidth=2;html=1;shape=mxgraph.flowchart.start_2;whiteSpace=wrap;fillColor=#1fa831;strokeColor=none;" parent="MQac5VMawOJbnCCiq_Lp-12" vertex="1">
          <mxGeometry x="52" y="2.0799999999999996" width="16" height="16.639999999999997" as="geometry" />
        </mxCell>
        <mxCell id="MQac5VMawOJbnCCiq_Lp-16" value="" style="group" parent="1" vertex="1" connectable="0">
          <mxGeometry x="20" y="160" width="370" height="50" as="geometry" />
        </mxCell>
        <mxCell id="MQac5VMawOJbnCCiq_Lp-17" value="Create the directories and files starting from your home directory as follows:" style="rounded=1;whiteSpace=wrap;html=1;fontSize=18;fillColor=#ffcccc;strokeColor=#000000;strokeWidth=2;fontFamily=Mina;arcSize=0;hachureGap=4;align=right;spacingRight=5;fontStyle=1" parent="MQac5VMawOJbnCCiq_Lp-16" vertex="1">
          <mxGeometry x="20" width="350" height="50" as="geometry" />
        </mxCell>
        <mxCell id="MQac5VMawOJbnCCiq_Lp-18" value="1" style="ellipse;whiteSpace=wrap;html=1;aspect=fixed;strokeWidth=2;fillColor=#e51400;strokeColor=#000000;fontFamily=Mina;fontStyle=1;fontSize=20;spacingTop=3;fontColor=#ffffff;" parent="MQac5VMawOJbnCCiq_Lp-16" vertex="1">
          <mxGeometry x="-10" width="50" height="50" as="geometry" />
        </mxCell>
        <mxCell id="MQac5VMawOJbnCCiq_Lp-19" value="" style="group;flipH=1;" parent="1" vertex="1" connectable="0">
          <mxGeometry x="430" y="160" width="385" height="40" as="geometry" />
        </mxCell>
        <mxCell id="MQac5VMawOJbnCCiq_Lp-20" value="Rename f1 to be named with your name." style="rounded=1;whiteSpace=wrap;html=1;fontSize=18;fillColor=#ffcccc;strokeColor=#000000;strokeWidth=2;fontFamily=Mina;arcSize=0;hachureGap=4;align=left;spacingRight=5;fontStyle=1;spacingLeft=5;" parent="MQac5VMawOJbnCCiq_Lp-19" vertex="1">
          <mxGeometry width="365" height="40" as="geometry" />
        </mxCell>
        <mxCell id="MQac5VMawOJbnCCiq_Lp-21" value="2" style="ellipse;whiteSpace=wrap;html=1;aspect=fixed;strokeWidth=2;fillColor=#e51400;strokeColor=#000000;fontFamily=Mina;fontStyle=1;fontSize=20;spacingTop=3;fontColor=#ffffff;" parent="MQac5VMawOJbnCCiq_Lp-19" vertex="1">
          <mxGeometry x="345" width="40" height="40" as="geometry" />
        </mxCell>
        <mxCell id="MQac5VMawOJbnCCiq_Lp-37" value="" style="group;flipH=1;" parent="1" vertex="1" connectable="0">
          <mxGeometry x="490" y="250" width="290" height="90" as="geometry" />
        </mxCell>
        <mxCell id="MQac5VMawOJbnCCiq_Lp-23" value="&lt;div style=&quot;&quot;&gt;&lt;div style=&quot;line-height: 14px;&quot;&gt;&lt;div style=&quot;line-height: 19px;&quot;&gt;&lt;div style=&quot;line-height: 19px;&quot;&gt;&lt;div style=&quot;color: rgb(255, 255, 255); font-family: Consolas, &amp;quot;Courier New&amp;quot;, monospace; line-height: 19px; white-space: pre;&quot;&gt;&lt;div style=&quot;line-height: 19px;&quot;&gt;&lt;div style=&quot;color: rgb(56, 58, 66); line-height: 19px;&quot;&gt;&lt;span style=&quot;color: #4078f2;&quot;&gt;mv&lt;/span&gt; &lt;span style=&quot;color: #50a14f;&quot;&gt;dir1/f1&lt;/span&gt; &lt;span style=&quot;color: #50a14f;&quot;&gt;dir1/Mohamed&lt;/span&gt; &amp;amp;&amp;amp; &lt;span style=&quot;color: #4078f2;&quot;&gt;tree&lt;/span&gt; &lt;span style=&quot;color: #50a14f;&quot;&gt;..&lt;/span&gt;&lt;/div&gt;&lt;/div&gt;&lt;/div&gt;&lt;/div&gt;&lt;/div&gt;&lt;/div&gt;&lt;/div&gt;" style="rounded=1;whiteSpace=wrap;html=1;arcSize=11;strokeWidth=2;fillColor=#eeeeee;strokeColor=#000000;align=left;verticalAlign=top;spacing=15;spacingTop=31;fontSize=14;fontFamily=Mina;fontStyle=1;labelBackgroundColor=none;" parent="MQac5VMawOJbnCCiq_Lp-37" vertex="1">
          <mxGeometry width="290" height="90" as="geometry" />
        </mxCell>
        <mxCell id="MQac5VMawOJbnCCiq_Lp-24" value="" style="group;rounded=1;" parent="MQac5VMawOJbnCCiq_Lp-37" vertex="1" connectable="0">
          <mxGeometry x="205" y="19.895652173912367" width="72" height="21.885217391304348" as="geometry" />
        </mxCell>
        <mxCell id="MQac5VMawOJbnCCiq_Lp-25" value="&amp;nbsp; &amp;nbsp; &amp;nbsp; &amp;nbsp; &amp;nbsp; &amp;nbsp; &amp;nbsp; " style="strokeWidth=2;html=1;shape=mxgraph.flowchart.start_2;whiteSpace=wrap;fillColor=#ff5f56;strokeColor=none;rounded=1;" parent="MQac5VMawOJbnCCiq_Lp-24" vertex="1">
          <mxGeometry x="2" y="1.989565217391304" width="16" height="16" as="geometry" />
        </mxCell>
        <mxCell id="MQac5VMawOJbnCCiq_Lp-26" value="&amp;nbsp; &amp;nbsp; &amp;nbsp; &amp;nbsp; &amp;nbsp; &amp;nbsp; &amp;nbsp; " style="strokeWidth=2;html=1;shape=mxgraph.flowchart.start_2;whiteSpace=wrap;fillColor=#ffbd2e;strokeColor=none;rounded=1;" parent="MQac5VMawOJbnCCiq_Lp-24" vertex="1">
          <mxGeometry x="27" y="1.989565217391304" width="16" height="16" as="geometry" />
        </mxCell>
        <mxCell id="MQac5VMawOJbnCCiq_Lp-27" value="&amp;nbsp; &amp;nbsp; &amp;nbsp; &amp;nbsp; &amp;nbsp; &amp;nbsp; &amp;nbsp; " style="strokeWidth=2;html=1;shape=mxgraph.flowchart.start_2;whiteSpace=wrap;fillColor=#1fa831;strokeColor=none;rounded=1;" parent="MQac5VMawOJbnCCiq_Lp-24" vertex="1">
          <mxGeometry x="52" y="1.989565217391304" width="16" height="16" as="geometry" />
        </mxCell>
        <mxCell id="MQac5VMawOJbnCCiq_Lp-38" value="" style="group;flipH=1;" parent="1" vertex="1" connectable="0">
          <mxGeometry x="505" y="390" width="260" height="330" as="geometry" />
        </mxCell>
        <mxCell id="MQac5VMawOJbnCCiq_Lp-39" value="&lt;div style=&quot;color: rgb(255, 255, 255); white-space: pre; font-size: 15px;&quot;&gt;&lt;pre style=&quot;font-size: 15px;&quot;&gt;&lt;pre style=&quot;font-size: 15px;&quot;&gt;﻿..&lt;pre style=&quot;font-size: 15px;&quot;&gt;└── &lt;span style=&quot;color: rgb(114, 159, 207); font-size: 15px;&quot;&gt;my_directories&lt;/span&gt;&lt;br style=&quot;font-size: 15px;&quot;&gt;    ├── &lt;span style=&quot;color: rgb(114, 159, 207); font-size: 15px;&quot;&gt;dir1&lt;/span&gt;&lt;br style=&quot;font-size: 15px;&quot;&gt;    │&amp;nbsp;&amp;nbsp; ├── Mohamed&lt;br style=&quot;font-size: 15px;&quot;&gt;    │&amp;nbsp;&amp;nbsp; └── f2&lt;br style=&quot;font-size: 15px;&quot;&gt;    ├── &lt;span style=&quot;color: rgb(114, 159, 207); font-size: 15px;&quot;&gt;dir2&lt;/span&gt;&lt;br style=&quot;font-size: 15px;&quot;&gt;    │&amp;nbsp;&amp;nbsp; ├── f3&lt;br style=&quot;font-size: 15px;&quot;&gt;    │&amp;nbsp;&amp;nbsp; └── f4&lt;br style=&quot;font-size: 15px;&quot;&gt;    └── &lt;span style=&quot;color: rgb(114, 159, 207); font-size: 15px;&quot;&gt;dir3&lt;/span&gt;&lt;br style=&quot;font-size: 15px;&quot;&gt;        └── &lt;span style=&quot;color: rgb(114, 159, 207); font-size: 15px;&quot;&gt;dir4&lt;/span&gt;&lt;br style=&quot;font-size: 15px;&quot;&gt;            └── f5&lt;br style=&quot;font-size: 15px;&quot;&gt;&lt;br style=&quot;font-size: 15px;&quot;&gt;6 directories, 5 files&lt;/pre&gt;&lt;/pre&gt;&lt;/pre&gt;&lt;/div&gt;" style="rounded=1;whiteSpace=wrap;html=1;arcSize=7;strokeWidth=2;fillColor=#404552;strokeColor=none;align=left;verticalAlign=top;spacing=15;spacingTop=31;fontSize=15;fontFamily=Mina;fontStyle=1;labelBackgroundColor=none;" parent="MQac5VMawOJbnCCiq_Lp-38" vertex="1">
          <mxGeometry width="260" height="330" as="geometry" />
        </mxCell>
        <mxCell id="MQac5VMawOJbnCCiq_Lp-40" value="" style="group" parent="MQac5VMawOJbnCCiq_Lp-38" vertex="1" connectable="0">
          <mxGeometry x="175" y="20.80000000000001" width="72" height="22.88" as="geometry" />
        </mxCell>
        <mxCell id="MQac5VMawOJbnCCiq_Lp-41" value="&amp;nbsp; &amp;nbsp; &amp;nbsp; &amp;nbsp; &amp;nbsp; &amp;nbsp; &amp;nbsp; " style="strokeWidth=2;html=1;shape=mxgraph.flowchart.start_2;whiteSpace=wrap;fillColor=#ff5f56;strokeColor=none;" parent="MQac5VMawOJbnCCiq_Lp-40" vertex="1">
          <mxGeometry x="2" y="2.0799999999999996" width="16" height="16.639999999999997" as="geometry" />
        </mxCell>
        <mxCell id="MQac5VMawOJbnCCiq_Lp-42" value="&amp;nbsp; &amp;nbsp; &amp;nbsp; &amp;nbsp; &amp;nbsp; &amp;nbsp; &amp;nbsp; " style="strokeWidth=2;html=1;shape=mxgraph.flowchart.start_2;whiteSpace=wrap;fillColor=#ffbd2e;strokeColor=none;" parent="MQac5VMawOJbnCCiq_Lp-40" vertex="1">
          <mxGeometry x="27" y="2.0799999999999996" width="16" height="16.639999999999997" as="geometry" />
        </mxCell>
        <mxCell id="MQac5VMawOJbnCCiq_Lp-43" value="&amp;nbsp; &amp;nbsp; &amp;nbsp; &amp;nbsp; &amp;nbsp; &amp;nbsp; &amp;nbsp; " style="strokeWidth=2;html=1;shape=mxgraph.flowchart.start_2;whiteSpace=wrap;fillColor=#1fa831;strokeColor=none;" parent="MQac5VMawOJbnCCiq_Lp-40" vertex="1">
          <mxGeometry x="52" y="2.0799999999999996" width="16" height="16.639999999999997" as="geometry" />
        </mxCell>
        <mxCell id="MQac5VMawOJbnCCiq_Lp-44" value="" style="group;flipH=0;" parent="1" vertex="1" connectable="0">
          <mxGeometry x="10" y="750" width="260" height="40" as="geometry" />
        </mxCell>
        <mxCell id="MQac5VMawOJbnCCiq_Lp-45" value="Copy f2 to be under dir4." style="rounded=1;whiteSpace=wrap;html=1;fontSize=18;fillColor=#ffcccc;strokeColor=#000000;strokeWidth=2;fontFamily=Mina;arcSize=0;hachureGap=4;align=right;spacingRight=5;fontStyle=1;spacingLeft=5;" parent="MQac5VMawOJbnCCiq_Lp-44" vertex="1">
          <mxGeometry x="20" width="240" height="40" as="geometry" />
        </mxCell>
        <mxCell id="MQac5VMawOJbnCCiq_Lp-46" value="3" style="ellipse;whiteSpace=wrap;html=1;aspect=fixed;strokeWidth=2;fillColor=#e51400;strokeColor=#000000;fontFamily=Mina;fontStyle=1;fontSize=20;spacingTop=3;fontColor=#ffffff;" parent="MQac5VMawOJbnCCiq_Lp-44" vertex="1">
          <mxGeometry width="40" height="40" as="geometry" />
        </mxCell>
        <mxCell id="MQac5VMawOJbnCCiq_Lp-47" value="" style="group" parent="1" vertex="1" connectable="0">
          <mxGeometry x="20" y="830" width="310" height="90" as="geometry" />
        </mxCell>
        <mxCell id="MQac5VMawOJbnCCiq_Lp-48" value="&lt;div style=&quot;&quot;&gt;&lt;div style=&quot;line-height: 14px;&quot;&gt;&lt;div style=&quot;line-height: 19px;&quot;&gt;&lt;div style=&quot;line-height: 19px;&quot;&gt;&lt;div style=&quot;font-family: Consolas, &amp;quot;Courier New&amp;quot;, monospace; line-height: 19px; white-space: pre;&quot;&gt;&lt;div style=&quot;line-height: 19px;&quot;&gt;&lt;div style=&quot;line-height: 19px;&quot;&gt;&lt;div style=&quot;line-height: 19px;&quot;&gt;&lt;div style=&quot;line-height: 19px;&quot;&gt;&lt;div style=&quot;line-height: 19px;&quot;&gt;&lt;font color=&quot;#4078f2&quot;&gt;cp&lt;/font&gt;&lt;font color=&quot;#383a42&quot;&gt; &lt;/font&gt;&lt;span style=&quot;color: rgb(80, 161, 79);&quot;&gt;dir1/f2&lt;/span&gt;&lt;font color=&quot;#383a42&quot;&gt; &lt;/font&gt;&lt;span style=&quot;color: rgb(80, 161, 79);&quot;&gt;dir3/dir4&lt;/span&gt;&lt;font color=&quot;#383a42&quot;&gt; &amp;amp;&amp;amp; &lt;/font&gt;&lt;span style=&quot;color: rgb(64, 120, 242);&quot;&gt;ls&lt;/span&gt;&lt;font color=&quot;#383a42&quot;&gt; &lt;/font&gt;&lt;span style=&quot;color: rgb(80, 161, 79);&quot;&gt;dir3/dir4&lt;/span&gt;&lt;/div&gt;&lt;/div&gt;&lt;/div&gt;&lt;/div&gt;&lt;/div&gt;&lt;/div&gt;&lt;/div&gt;&lt;/div&gt;&lt;/div&gt;&lt;/div&gt;" style="rounded=1;whiteSpace=wrap;html=1;arcSize=11;strokeWidth=2;fillColor=#eeeeee;strokeColor=#000000;align=left;verticalAlign=top;spacing=15;spacingTop=31;fontSize=14;fontFamily=Mina;fontStyle=1;labelBackgroundColor=none;" parent="MQac5VMawOJbnCCiq_Lp-47" vertex="1">
          <mxGeometry width="310" height="90" as="geometry" />
        </mxCell>
        <mxCell id="MQac5VMawOJbnCCiq_Lp-49" value="" style="group;rounded=1;" parent="MQac5VMawOJbnCCiq_Lp-47" vertex="1" connectable="0">
          <mxGeometry x="13" y="19.895652173912367" width="72" height="21.885217391304348" as="geometry" />
        </mxCell>
        <mxCell id="MQac5VMawOJbnCCiq_Lp-50" value="&amp;nbsp; &amp;nbsp; &amp;nbsp; &amp;nbsp; &amp;nbsp; &amp;nbsp; &amp;nbsp; " style="strokeWidth=2;html=1;shape=mxgraph.flowchart.start_2;whiteSpace=wrap;fillColor=#ff5f56;strokeColor=none;rounded=1;" parent="MQac5VMawOJbnCCiq_Lp-49" vertex="1">
          <mxGeometry x="2" y="1.989565217391304" width="16" height="16" as="geometry" />
        </mxCell>
        <mxCell id="MQac5VMawOJbnCCiq_Lp-51" value="&amp;nbsp; &amp;nbsp; &amp;nbsp; &amp;nbsp; &amp;nbsp; &amp;nbsp; &amp;nbsp; " style="strokeWidth=2;html=1;shape=mxgraph.flowchart.start_2;whiteSpace=wrap;fillColor=#ffbd2e;strokeColor=none;rounded=1;" parent="MQac5VMawOJbnCCiq_Lp-49" vertex="1">
          <mxGeometry x="27" y="1.989565217391304" width="16" height="16" as="geometry" />
        </mxCell>
        <mxCell id="MQac5VMawOJbnCCiq_Lp-52" value="&amp;nbsp; &amp;nbsp; &amp;nbsp; &amp;nbsp; &amp;nbsp; &amp;nbsp; &amp;nbsp; " style="strokeWidth=2;html=1;shape=mxgraph.flowchart.start_2;whiteSpace=wrap;fillColor=#1fa831;strokeColor=none;rounded=1;" parent="MQac5VMawOJbnCCiq_Lp-49" vertex="1">
          <mxGeometry x="52" y="1.989565217391304" width="16" height="16" as="geometry" />
        </mxCell>
        <mxCell id="MQac5VMawOJbnCCiq_Lp-53" value="" style="group" parent="1" vertex="1" connectable="0">
          <mxGeometry x="50" y="960" width="210" height="110" as="geometry" />
        </mxCell>
        <mxCell id="MQac5VMawOJbnCCiq_Lp-54" value="&lt;div style=&quot;color: rgb(255, 255, 255); white-space: pre; font-size: 17px;&quot;&gt;&lt;pre style=&quot;font-size: 17px;&quot;&gt;&lt;pre&gt;&lt;pre&gt;f2  f5&lt;br&gt;&lt;/pre&gt;&lt;/pre&gt;&lt;/pre&gt;&lt;/div&gt;" style="rounded=1;whiteSpace=wrap;html=1;arcSize=10;strokeWidth=2;fillColor=#404552;strokeColor=none;align=left;verticalAlign=top;spacing=15;spacingTop=31;fontSize=17;fontFamily=Mina;fontStyle=1;" parent="MQac5VMawOJbnCCiq_Lp-53" vertex="1">
          <mxGeometry width="210" height="110" as="geometry" />
        </mxCell>
        <mxCell id="MQac5VMawOJbnCCiq_Lp-55" value="" style="group" parent="MQac5VMawOJbnCCiq_Lp-53" vertex="1" connectable="0">
          <mxGeometry x="13" y="20.80000000000001" width="72" height="22.88" as="geometry" />
        </mxCell>
        <mxCell id="MQac5VMawOJbnCCiq_Lp-56" value="&amp;nbsp; &amp;nbsp; &amp;nbsp; &amp;nbsp; &amp;nbsp; &amp;nbsp; &amp;nbsp; " style="strokeWidth=2;html=1;shape=mxgraph.flowchart.start_2;whiteSpace=wrap;fillColor=#ff5f56;strokeColor=none;" parent="MQac5VMawOJbnCCiq_Lp-55" vertex="1">
          <mxGeometry x="2" y="2.0799999999999996" width="16" height="16.639999999999997" as="geometry" />
        </mxCell>
        <mxCell id="MQac5VMawOJbnCCiq_Lp-57" value="&amp;nbsp; &amp;nbsp; &amp;nbsp; &amp;nbsp; &amp;nbsp; &amp;nbsp; &amp;nbsp; " style="strokeWidth=2;html=1;shape=mxgraph.flowchart.start_2;whiteSpace=wrap;fillColor=#ffbd2e;strokeColor=none;" parent="MQac5VMawOJbnCCiq_Lp-55" vertex="1">
          <mxGeometry x="27" y="2.0799999999999996" width="16" height="16.639999999999997" as="geometry" />
        </mxCell>
        <mxCell id="MQac5VMawOJbnCCiq_Lp-58" value="&amp;nbsp; &amp;nbsp; &amp;nbsp; &amp;nbsp; &amp;nbsp; &amp;nbsp; &amp;nbsp; " style="strokeWidth=2;html=1;shape=mxgraph.flowchart.start_2;whiteSpace=wrap;fillColor=#1fa831;strokeColor=none;" parent="MQac5VMawOJbnCCiq_Lp-55" vertex="1">
          <mxGeometry x="52" y="2.0799999999999996" width="16" height="16.639999999999997" as="geometry" />
        </mxCell>
        <mxCell id="MQac5VMawOJbnCCiq_Lp-59" value="" style="group;flipH=1;" parent="1" vertex="1" connectable="0">
          <mxGeometry x="630" y="750" width="185" height="40" as="geometry" />
        </mxCell>
        <mxCell id="MQac5VMawOJbnCCiq_Lp-60" value="Move f2 to dir2." style="rounded=1;whiteSpace=wrap;html=1;fontSize=18;fillColor=#ffcccc;strokeColor=#000000;strokeWidth=2;fontFamily=Mina;arcSize=0;hachureGap=4;align=left;spacingRight=5;fontStyle=1;spacingLeft=5;" parent="MQac5VMawOJbnCCiq_Lp-59" vertex="1">
          <mxGeometry width="165" height="40" as="geometry" />
        </mxCell>
        <mxCell id="MQac5VMawOJbnCCiq_Lp-61" value="4" style="ellipse;whiteSpace=wrap;html=1;aspect=fixed;strokeWidth=2;fillColor=#e51400;strokeColor=#000000;fontFamily=Mina;fontStyle=1;fontSize=20;spacingTop=3;fontColor=#ffffff;" parent="MQac5VMawOJbnCCiq_Lp-59" vertex="1">
          <mxGeometry x="145" width="40" height="40" as="geometry" />
        </mxCell>
        <mxCell id="MQac5VMawOJbnCCiq_Lp-62" value="" style="group;flipH=1;" parent="1" vertex="1" connectable="0">
          <mxGeometry x="490" y="830" width="290" height="90" as="geometry" />
        </mxCell>
        <mxCell id="MQac5VMawOJbnCCiq_Lp-63" value="&lt;div style=&quot;&quot;&gt;&lt;div style=&quot;line-height: 14px;&quot;&gt;&lt;div style=&quot;line-height: 19px;&quot;&gt;&lt;div style=&quot;line-height: 19px;&quot;&gt;&lt;div style=&quot;color: rgb(255, 255, 255); font-family: Consolas, &amp;quot;Courier New&amp;quot;, monospace; line-height: 19px; white-space: pre;&quot;&gt;&lt;div style=&quot;line-height: 19px;&quot;&gt;&lt;div style=&quot;color: rgb(56, 58, 66); line-height: 19px;&quot;&gt;&lt;div style=&quot;line-height: 19px;&quot;&gt;&lt;span style=&quot;color: #4078f2;&quot;&gt;mv&lt;/span&gt; &lt;span style=&quot;color: #50a14f;&quot;&gt;dir3/dir4/f2&lt;/span&gt; &lt;span style=&quot;color: #50a14f;&quot;&gt;dir2&lt;/span&gt; &amp;amp;&amp;amp; &lt;span style=&quot;color: #4078f2;&quot;&gt;ls&lt;/span&gt; &lt;span style=&quot;color: #50a14f;&quot;&gt;dir2&lt;/span&gt;&lt;/div&gt;&lt;/div&gt;&lt;/div&gt;&lt;/div&gt;&lt;/div&gt;&lt;/div&gt;&lt;/div&gt;&lt;/div&gt;" style="rounded=1;whiteSpace=wrap;html=1;arcSize=11;strokeWidth=2;fillColor=#eeeeee;strokeColor=#000000;align=left;verticalAlign=top;spacing=15;spacingTop=31;fontSize=14;fontFamily=Mina;fontStyle=1;labelBackgroundColor=none;" parent="MQac5VMawOJbnCCiq_Lp-62" vertex="1">
          <mxGeometry width="290" height="90" as="geometry" />
        </mxCell>
        <mxCell id="MQac5VMawOJbnCCiq_Lp-64" value="" style="group;rounded=1;" parent="MQac5VMawOJbnCCiq_Lp-62" vertex="1" connectable="0">
          <mxGeometry x="205" y="19.895652173912367" width="72" height="21.885217391304348" as="geometry" />
        </mxCell>
        <mxCell id="MQac5VMawOJbnCCiq_Lp-65" value="&amp;nbsp; &amp;nbsp; &amp;nbsp; &amp;nbsp; &amp;nbsp; &amp;nbsp; &amp;nbsp; " style="strokeWidth=2;html=1;shape=mxgraph.flowchart.start_2;whiteSpace=wrap;fillColor=#ff5f56;strokeColor=none;rounded=1;" parent="MQac5VMawOJbnCCiq_Lp-64" vertex="1">
          <mxGeometry x="2" y="1.989565217391304" width="16" height="16" as="geometry" />
        </mxCell>
        <mxCell id="MQac5VMawOJbnCCiq_Lp-66" value="&amp;nbsp; &amp;nbsp; &amp;nbsp; &amp;nbsp; &amp;nbsp; &amp;nbsp; &amp;nbsp; " style="strokeWidth=2;html=1;shape=mxgraph.flowchart.start_2;whiteSpace=wrap;fillColor=#ffbd2e;strokeColor=none;rounded=1;" parent="MQac5VMawOJbnCCiq_Lp-64" vertex="1">
          <mxGeometry x="27" y="1.989565217391304" width="16" height="16" as="geometry" />
        </mxCell>
        <mxCell id="MQac5VMawOJbnCCiq_Lp-67" value="&amp;nbsp; &amp;nbsp; &amp;nbsp; &amp;nbsp; &amp;nbsp; &amp;nbsp; &amp;nbsp; " style="strokeWidth=2;html=1;shape=mxgraph.flowchart.start_2;whiteSpace=wrap;fillColor=#1fa831;strokeColor=none;rounded=1;" parent="MQac5VMawOJbnCCiq_Lp-64" vertex="1">
          <mxGeometry x="52" y="1.989565217391304" width="16" height="16" as="geometry" />
        </mxCell>
        <mxCell id="MQac5VMawOJbnCCiq_Lp-68" value="" style="group;flipH=1;" parent="1" vertex="1" connectable="0">
          <mxGeometry x="505" y="960" width="260" height="110" as="geometry" />
        </mxCell>
        <mxCell id="MQac5VMawOJbnCCiq_Lp-69" value="&lt;div style=&quot;color: rgb(255, 255, 255); white-space: pre; font-size: 15px;&quot;&gt;&lt;pre style=&quot;font-size: 15px;&quot;&gt;&lt;pre style=&quot;font-size: 15px;&quot;&gt;&lt;pre style=&quot;font-size: 17px;&quot;&gt;f2  f3  f4&lt;/pre&gt;&lt;/pre&gt;&lt;/pre&gt;&lt;/div&gt;" style="rounded=1;whiteSpace=wrap;html=1;arcSize=10;strokeWidth=2;fillColor=#404552;strokeColor=none;align=left;verticalAlign=top;spacing=15;spacingTop=31;fontSize=15;fontFamily=Mina;fontStyle=1;labelBackgroundColor=none;" parent="MQac5VMawOJbnCCiq_Lp-68" vertex="1">
          <mxGeometry width="260" height="110" as="geometry" />
        </mxCell>
        <mxCell id="MQac5VMawOJbnCCiq_Lp-70" value="" style="group" parent="MQac5VMawOJbnCCiq_Lp-68" vertex="1" connectable="0">
          <mxGeometry x="175" y="20.80000000000001" width="72" height="22.88" as="geometry" />
        </mxCell>
        <mxCell id="MQac5VMawOJbnCCiq_Lp-71" value="&amp;nbsp; &amp;nbsp; &amp;nbsp; &amp;nbsp; &amp;nbsp; &amp;nbsp; &amp;nbsp; " style="strokeWidth=2;html=1;shape=mxgraph.flowchart.start_2;whiteSpace=wrap;fillColor=#ff5f56;strokeColor=none;" parent="MQac5VMawOJbnCCiq_Lp-70" vertex="1">
          <mxGeometry x="2" y="2.0799999999999996" width="16" height="16.639999999999997" as="geometry" />
        </mxCell>
        <mxCell id="MQac5VMawOJbnCCiq_Lp-72" value="&amp;nbsp; &amp;nbsp; &amp;nbsp; &amp;nbsp; &amp;nbsp; &amp;nbsp; &amp;nbsp; " style="strokeWidth=2;html=1;shape=mxgraph.flowchart.start_2;whiteSpace=wrap;fillColor=#ffbd2e;strokeColor=none;" parent="MQac5VMawOJbnCCiq_Lp-70" vertex="1">
          <mxGeometry x="27" y="2.0799999999999996" width="16" height="16.639999999999997" as="geometry" />
        </mxCell>
        <mxCell id="MQac5VMawOJbnCCiq_Lp-73" value="&amp;nbsp; &amp;nbsp; &amp;nbsp; &amp;nbsp; &amp;nbsp; &amp;nbsp; &amp;nbsp; " style="strokeWidth=2;html=1;shape=mxgraph.flowchart.start_2;whiteSpace=wrap;fillColor=#1fa831;strokeColor=none;" parent="MQac5VMawOJbnCCiq_Lp-70" vertex="1">
          <mxGeometry x="52" y="2.0799999999999996" width="16" height="16.639999999999997" as="geometry" />
        </mxCell>
        <mxCell id="MQac5VMawOJbnCCiq_Lp-74" style="edgeStyle=elbowEdgeStyle;rounded=1;orthogonalLoop=1;jettySize=auto;html=1;strokeWidth=2;dashed=1;startArrow=none;startFill=0;endArrow=none;endFill=0;jumpSize=8;jumpStyle=line;shadow=0;flowAnimation=0;strokeColor=default;" parent="1" edge="1">
          <mxGeometry relative="1" as="geometry">
            <mxPoint x="410" y="1151.5999755859375" as="targetPoint" />
            <mxPoint x="410" y="150" as="sourcePoint" />
          </mxGeometry>
        </mxCell>
        <mxCell id="MQac5VMawOJbnCCiq_Lp-75" value="" style="group" parent="1" vertex="1" connectable="0">
          <mxGeometry x="29" y="240" width="360" height="140" as="geometry" />
        </mxCell>
        <mxCell id="MQac5VMawOJbnCCiq_Lp-5" value="&lt;div style=&quot;white-space: pre; font-size: 14px;&quot;&gt;&lt;div style=&quot;font-family: Consolas, &amp;quot;Courier New&amp;quot;, monospace; font-size: 14px; line-height: 14px;&quot;&gt;&lt;div style=&quot;line-height: 19px; font-size: 14px;&quot;&gt;&lt;div style=&quot;color: rgb(255, 255, 255); font-size: 14px; line-height: 19px;&quot;&gt;&lt;div style=&quot;color: rgb(56, 58, 66); line-height: 19px;&quot;&gt;&lt;div&gt;&lt;span style=&quot;color: #4078f2;&quot;&gt;mkdir&lt;/span&gt; &lt;span style=&quot;color: #50a14f;&quot;&gt;my_directories&lt;/span&gt; &amp;amp;&amp;amp; &lt;span style=&quot;color: #0184bc;&quot;&gt;cd&lt;/span&gt; &lt;span style=&quot;color: #50a14f;&quot;&gt;my_directories&lt;/span&gt; &lt;/div&gt;&lt;div&gt;&amp;amp;&amp;amp; &lt;span style=&quot;color: #4078f2;&quot;&gt;mkdir&lt;/span&gt; &lt;span style=&quot;color: #50a14f;&quot;&gt;dir1&lt;/span&gt; &lt;span style=&quot;color: #50a14f;&quot;&gt;dir2&lt;/span&gt; &lt;span style=&quot;color: #50a14f;&quot;&gt;dir3&lt;/span&gt; &amp;amp;&amp;amp; &lt;span style=&quot;color: #4078f2;&quot;&gt;mkdir&lt;/span&gt; &lt;/div&gt;&lt;div&gt;&lt;span style=&quot;color: #4078f2;&quot;&gt;dir3/dir4&lt;/span&gt; &amp;amp;&amp;amp; &lt;span style=&quot;color: #4078f2;&quot;&gt;touch&lt;/span&gt; &lt;span style=&quot;color: #50a14f;&quot;&gt;dir1/f1&lt;/span&gt; &lt;span style=&quot;color: #50a14f;&quot;&gt;dir1/f2&lt;/span&gt; &lt;span style=&quot;color: #50a14f;&quot;&gt;dir2/f3&lt;/span&gt; &lt;/div&gt;&lt;div&gt;&lt;span style=&quot;color: #4078f2;&quot;&gt;dir2/f4&lt;/span&gt; &lt;span style=&quot;color: #50a14f;&quot;&gt;dir3/dir4/f5&lt;/span&gt; &amp;amp;&amp;amp; &lt;span style=&quot;color: #4078f2;&quot;&gt;tree&lt;/span&gt; &lt;span style=&quot;color: #50a14f;&quot;&gt;..&lt;/span&gt;&lt;/div&gt;&lt;/div&gt;&lt;/div&gt;&lt;/div&gt;&lt;/div&gt;&lt;/div&gt;" style="rounded=1;whiteSpace=wrap;html=1;arcSize=11;strokeWidth=2;fillColor=#eeeeee;strokeColor=#000000;align=left;verticalAlign=top;spacing=15;spacingTop=31;fontSize=14;fontFamily=Mina;fontStyle=1;labelBackgroundColor=none;" parent="MQac5VMawOJbnCCiq_Lp-75" vertex="1">
          <mxGeometry width="360" height="140" as="geometry" />
        </mxCell>
        <mxCell id="MQac5VMawOJbnCCiq_Lp-6" value="" style="group;rounded=1;" parent="MQac5VMawOJbnCCiq_Lp-75" vertex="1" connectable="0">
          <mxGeometry x="13" y="19.895652173912367" width="72" height="21.885217391304348" as="geometry" />
        </mxCell>
        <mxCell id="MQac5VMawOJbnCCiq_Lp-7" value="&amp;nbsp; &amp;nbsp; &amp;nbsp; &amp;nbsp; &amp;nbsp; &amp;nbsp; &amp;nbsp; " style="strokeWidth=2;html=1;shape=mxgraph.flowchart.start_2;whiteSpace=wrap;fillColor=#ff5f56;strokeColor=none;rounded=1;" parent="MQac5VMawOJbnCCiq_Lp-6" vertex="1">
          <mxGeometry x="2" y="1.989565217391304" width="16" height="16" as="geometry" />
        </mxCell>
        <mxCell id="MQac5VMawOJbnCCiq_Lp-8" value="&amp;nbsp; &amp;nbsp; &amp;nbsp; &amp;nbsp; &amp;nbsp; &amp;nbsp; &amp;nbsp; " style="strokeWidth=2;html=1;shape=mxgraph.flowchart.start_2;whiteSpace=wrap;fillColor=#ffbd2e;strokeColor=none;rounded=1;" parent="MQac5VMawOJbnCCiq_Lp-6" vertex="1">
          <mxGeometry x="27" y="1.989565217391304" width="16" height="16" as="geometry" />
        </mxCell>
        <mxCell id="MQac5VMawOJbnCCiq_Lp-9" value="&amp;nbsp; &amp;nbsp; &amp;nbsp; &amp;nbsp; &amp;nbsp; &amp;nbsp; &amp;nbsp; " style="strokeWidth=2;html=1;shape=mxgraph.flowchart.start_2;whiteSpace=wrap;fillColor=#1fa831;strokeColor=none;rounded=1;" parent="MQac5VMawOJbnCCiq_Lp-6" vertex="1">
          <mxGeometry x="52" y="1.989565217391304" width="16" height="16" as="geometry" />
        </mxCell>
        <mxCell id="e7Vy6nSdRx5YWv6xTN5V-3" value="" style="group;flipH=0;" vertex="1" connectable="0" parent="1">
          <mxGeometry x="11" y="1190" width="260" height="40" as="geometry" />
        </mxCell>
        <mxCell id="e7Vy6nSdRx5YWv6xTN5V-4" value="Delete dir3 using rmdir" style="rounded=1;whiteSpace=wrap;html=1;fontSize=18;fillColor=#ffcccc;strokeColor=#000000;strokeWidth=2;fontFamily=Mina;arcSize=0;hachureGap=4;align=right;spacingRight=5;fontStyle=1;spacingLeft=5;" vertex="1" parent="e7Vy6nSdRx5YWv6xTN5V-3">
          <mxGeometry x="20" width="220" height="40" as="geometry" />
        </mxCell>
        <mxCell id="e7Vy6nSdRx5YWv6xTN5V-5" value="5" style="ellipse;whiteSpace=wrap;html=1;aspect=fixed;strokeWidth=2;fillColor=#e51400;strokeColor=#000000;fontFamily=Mina;fontStyle=1;fontSize=20;spacingTop=3;fontColor=#ffffff;" vertex="1" parent="e7Vy6nSdRx5YWv6xTN5V-3">
          <mxGeometry width="40" height="40" as="geometry" />
        </mxCell>
        <mxCell id="e7Vy6nSdRx5YWv6xTN5V-6" value="" style="group" vertex="1" connectable="0" parent="1">
          <mxGeometry x="20" y="1260" width="310" height="100" as="geometry" />
        </mxCell>
        <mxCell id="e7Vy6nSdRx5YWv6xTN5V-7" value="&lt;div style=&quot;&quot;&gt;&lt;div style=&quot;line-height: 14px;&quot;&gt;&lt;div style=&quot;line-height: 19px;&quot;&gt;&lt;div style=&quot;line-height: 19px;&quot;&gt;&lt;div style=&quot;font-family: Consolas, &amp;quot;Courier New&amp;quot;, monospace; line-height: 19px; white-space: pre;&quot;&gt;&lt;div style=&quot;line-height: 19px;&quot;&gt;&lt;div style=&quot;line-height: 19px;&quot;&gt;&lt;div style=&quot;line-height: 19px;&quot;&gt;&lt;div style=&quot;line-height: 19px;&quot;&gt;&lt;div style=&quot;line-height: 19px;&quot;&gt;&lt;div style=&quot;color: rgb(56, 58, 66); line-height: 19px;&quot;&gt;&lt;span style=&quot;color: #4078f2;&quot;&gt;rm&lt;/span&gt; &lt;span style=&quot;color: #50a14f;&quot;&gt;dir3/dir4/f5&lt;/span&gt; &amp;amp;&amp;amp; &lt;span style=&quot;color: #4078f2;&quot;&gt;rmdir&lt;/span&gt; &lt;span style=&quot;color: #50a14f;&quot;&gt;dir3/dir4&lt;/span&gt; &amp;amp;&amp;amp;&lt;br&gt; &lt;span style=&quot;color: #4078f2;&quot;&gt;rmdir&lt;/span&gt; &lt;span style=&quot;color: #50a14f;&quot;&gt;dir3 &lt;/span&gt;&lt;span style=&quot;&quot;&gt;&amp;amp;&amp;amp; &lt;/span&gt;&lt;span style=&quot;color: rgb(64, 120, 242);&quot;&gt;tree&lt;/span&gt;&lt;span style=&quot;&quot;&gt; &lt;/span&gt;&lt;span style=&quot;color: rgb(80, 161, 79);&quot;&gt;..&lt;/span&gt;&lt;/div&gt;&lt;/div&gt;&lt;/div&gt;&lt;/div&gt;&lt;/div&gt;&lt;/div&gt;&lt;/div&gt;&lt;/div&gt;&lt;/div&gt;&lt;/div&gt;&lt;/div&gt;" style="rounded=1;whiteSpace=wrap;html=1;arcSize=9;strokeWidth=2;fillColor=#eeeeee;strokeColor=#000000;align=left;verticalAlign=top;spacing=15;spacingTop=31;fontSize=14;fontFamily=Mina;fontStyle=1;labelBackgroundColor=none;" vertex="1" parent="e7Vy6nSdRx5YWv6xTN5V-6">
          <mxGeometry width="310" height="100" as="geometry" />
        </mxCell>
        <mxCell id="e7Vy6nSdRx5YWv6xTN5V-8" value="" style="group;rounded=1;" vertex="1" connectable="0" parent="e7Vy6nSdRx5YWv6xTN5V-6">
          <mxGeometry x="13" y="19.895652173912367" width="72" height="21.885217391304348" as="geometry" />
        </mxCell>
        <mxCell id="e7Vy6nSdRx5YWv6xTN5V-9" value="&amp;nbsp; &amp;nbsp; &amp;nbsp; &amp;nbsp; &amp;nbsp; &amp;nbsp; &amp;nbsp; " style="strokeWidth=2;html=1;shape=mxgraph.flowchart.start_2;whiteSpace=wrap;fillColor=#ff5f56;strokeColor=none;rounded=1;" vertex="1" parent="e7Vy6nSdRx5YWv6xTN5V-8">
          <mxGeometry x="2" y="1.989565217391304" width="16" height="16" as="geometry" />
        </mxCell>
        <mxCell id="e7Vy6nSdRx5YWv6xTN5V-10" value="&amp;nbsp; &amp;nbsp; &amp;nbsp; &amp;nbsp; &amp;nbsp; &amp;nbsp; &amp;nbsp; " style="strokeWidth=2;html=1;shape=mxgraph.flowchart.start_2;whiteSpace=wrap;fillColor=#ffbd2e;strokeColor=none;rounded=1;" vertex="1" parent="e7Vy6nSdRx5YWv6xTN5V-8">
          <mxGeometry x="27" y="1.989565217391304" width="16" height="16" as="geometry" />
        </mxCell>
        <mxCell id="e7Vy6nSdRx5YWv6xTN5V-11" value="&amp;nbsp; &amp;nbsp; &amp;nbsp; &amp;nbsp; &amp;nbsp; &amp;nbsp; &amp;nbsp; " style="strokeWidth=2;html=1;shape=mxgraph.flowchart.start_2;whiteSpace=wrap;fillColor=#1fa831;strokeColor=none;rounded=1;" vertex="1" parent="e7Vy6nSdRx5YWv6xTN5V-8">
          <mxGeometry x="52" y="1.989565217391304" width="16" height="16" as="geometry" />
        </mxCell>
        <mxCell id="e7Vy6nSdRx5YWv6xTN5V-18" value="" style="group;flipH=0;" vertex="1" connectable="0" parent="1">
          <mxGeometry x="11" y="1425" width="220" height="40" as="geometry" />
        </mxCell>
        <mxCell id="e7Vy6nSdRx5YWv6xTN5V-19" value="Delete dir3 using rm" style="rounded=1;whiteSpace=wrap;html=1;fontSize=18;fillColor=#ffcccc;strokeColor=#000000;strokeWidth=2;fontFamily=Mina;arcSize=0;hachureGap=4;align=right;spacingRight=5;fontStyle=1;spacingLeft=5;" vertex="1" parent="e7Vy6nSdRx5YWv6xTN5V-18">
          <mxGeometry x="20" width="200" height="40" as="geometry" />
        </mxCell>
        <mxCell id="e7Vy6nSdRx5YWv6xTN5V-20" value="6" style="ellipse;whiteSpace=wrap;html=1;aspect=fixed;strokeWidth=2;fillColor=#e51400;strokeColor=#000000;fontFamily=Mina;fontStyle=1;fontSize=20;spacingTop=3;fontColor=#ffffff;" vertex="1" parent="e7Vy6nSdRx5YWv6xTN5V-18">
          <mxGeometry width="40" height="40" as="geometry" />
        </mxCell>
        <mxCell id="e7Vy6nSdRx5YWv6xTN5V-21" value="" style="group;flipH=0;" vertex="1" connectable="0" parent="1">
          <mxGeometry x="260" y="1400" width="190" height="90" as="geometry" />
        </mxCell>
        <mxCell id="e7Vy6nSdRx5YWv6xTN5V-22" value="&lt;div style=&quot;&quot;&gt;&lt;div style=&quot;line-height: 14px;&quot;&gt;&lt;div style=&quot;line-height: 19px;&quot;&gt;&lt;div style=&quot;line-height: 19px;&quot;&gt;&lt;div style=&quot;color: rgb(255, 255, 255); font-family: Consolas, &amp;quot;Courier New&amp;quot;, monospace; line-height: 19px; white-space: pre;&quot;&gt;&lt;div style=&quot;line-height: 19px;&quot;&gt;&lt;div style=&quot;color: rgb(56, 58, 66); line-height: 19px;&quot;&gt;&lt;div style=&quot;line-height: 19px;&quot;&gt;&lt;div style=&quot;line-height: 19px;&quot;&gt;&lt;span style=&quot;color: #4078f2;&quot;&gt;rm&lt;/span&gt; &lt;span style=&quot;color: #986801;&quot;&gt;-r&lt;/span&gt; &lt;span style=&quot;color: #50a14f;&quot;&gt;dir3 &lt;/span&gt;&lt;span style=&quot;&quot;&gt;&amp;amp;&amp;amp; &lt;/span&gt;&lt;span style=&quot;color: rgb(64, 120, 242);&quot;&gt;tree&lt;/span&gt;&lt;span style=&quot;&quot;&gt; &lt;/span&gt;&lt;span style=&quot;color: rgb(80, 161, 79);&quot;&gt;..&lt;/span&gt;&lt;/div&gt;&lt;/div&gt;&lt;/div&gt;&lt;/div&gt;&lt;/div&gt;&lt;/div&gt;&lt;/div&gt;&lt;/div&gt;&lt;/div&gt;" style="rounded=1;whiteSpace=wrap;html=1;arcSize=11;strokeWidth=2;fillColor=#eeeeee;strokeColor=#000000;align=left;verticalAlign=top;spacing=15;spacingTop=31;fontSize=14;fontFamily=Mina;fontStyle=1;labelBackgroundColor=none;" vertex="1" parent="e7Vy6nSdRx5YWv6xTN5V-21">
          <mxGeometry width="190" height="90" as="geometry" />
        </mxCell>
        <mxCell id="e7Vy6nSdRx5YWv6xTN5V-23" value="" style="group;rounded=1;" vertex="1" connectable="0" parent="e7Vy6nSdRx5YWv6xTN5V-21">
          <mxGeometry x="13" y="19.895652173912367" width="72" height="21.885217391304348" as="geometry" />
        </mxCell>
        <mxCell id="e7Vy6nSdRx5YWv6xTN5V-24" value="&amp;nbsp; &amp;nbsp; &amp;nbsp; &amp;nbsp; &amp;nbsp; &amp;nbsp; &amp;nbsp; " style="strokeWidth=2;html=1;shape=mxgraph.flowchart.start_2;whiteSpace=wrap;fillColor=#ff5f56;strokeColor=none;rounded=1;" vertex="1" parent="e7Vy6nSdRx5YWv6xTN5V-23">
          <mxGeometry x="2" y="1.989565217391304" width="16" height="16" as="geometry" />
        </mxCell>
        <mxCell id="e7Vy6nSdRx5YWv6xTN5V-25" value="&amp;nbsp; &amp;nbsp; &amp;nbsp; &amp;nbsp; &amp;nbsp; &amp;nbsp; &amp;nbsp; " style="strokeWidth=2;html=1;shape=mxgraph.flowchart.start_2;whiteSpace=wrap;fillColor=#ffbd2e;strokeColor=none;rounded=1;" vertex="1" parent="e7Vy6nSdRx5YWv6xTN5V-23">
          <mxGeometry x="27" y="1.989565217391304" width="16" height="16" as="geometry" />
        </mxCell>
        <mxCell id="e7Vy6nSdRx5YWv6xTN5V-26" value="&amp;nbsp; &amp;nbsp; &amp;nbsp; &amp;nbsp; &amp;nbsp; &amp;nbsp; &amp;nbsp; " style="strokeWidth=2;html=1;shape=mxgraph.flowchart.start_2;whiteSpace=wrap;fillColor=#1fa831;strokeColor=none;rounded=1;" vertex="1" parent="e7Vy6nSdRx5YWv6xTN5V-23">
          <mxGeometry x="52" y="1.989565217391304" width="16" height="16" as="geometry" />
        </mxCell>
        <mxCell id="e7Vy6nSdRx5YWv6xTN5V-27" value="" style="group;flipH=1;" vertex="1" connectable="0" parent="1">
          <mxGeometry x="510" y="1200" width="280" height="330" as="geometry" />
        </mxCell>
        <mxCell id="e7Vy6nSdRx5YWv6xTN5V-28" value="&lt;div style=&quot;color: rgb(255, 255, 255); white-space: pre; font-size: 15px;&quot;&gt;&lt;pre style=&quot;font-size: 15px;&quot;&gt;&lt;pre style=&quot;font-size: 15px;&quot;&gt;&lt;pre style=&quot;font-size: 17px;&quot;&gt;..&lt;pre&gt;└── &lt;span style=&quot;color:#729FCF&quot;&gt;my_directories&lt;/span&gt;&lt;br&gt;    ├── &lt;span style=&quot;color:#729FCF&quot;&gt;dir1&lt;/span&gt;&lt;br&gt;    │&amp;nbsp;&amp;nbsp; ├── Mohamed&lt;br&gt;    │&amp;nbsp;&amp;nbsp; └── f2&lt;br&gt;    └── &lt;span style=&quot;color:#729FCF&quot;&gt;dir2&lt;/span&gt;&lt;br&gt;        ├── f2&lt;br&gt;        ├── f3&lt;br&gt;        └── f4&lt;br&gt;&lt;br&gt;4 directories, 5 files&lt;br&gt;&lt;/pre&gt;&lt;/pre&gt;&lt;/pre&gt;&lt;/pre&gt;&lt;/div&gt;" style="rounded=1;whiteSpace=wrap;html=1;arcSize=6;strokeWidth=2;fillColor=#404552;strokeColor=none;align=left;verticalAlign=top;spacing=15;spacingTop=31;fontSize=15;fontFamily=Mina;fontStyle=1;labelBackgroundColor=none;" vertex="1" parent="e7Vy6nSdRx5YWv6xTN5V-27">
          <mxGeometry width="280" height="330" as="geometry" />
        </mxCell>
        <mxCell id="e7Vy6nSdRx5YWv6xTN5V-29" value="" style="group" vertex="1" connectable="0" parent="e7Vy6nSdRx5YWv6xTN5V-27">
          <mxGeometry x="195" y="20.80000000000001" width="72" height="22.88" as="geometry" />
        </mxCell>
        <mxCell id="e7Vy6nSdRx5YWv6xTN5V-30" value="&amp;nbsp; &amp;nbsp; &amp;nbsp; &amp;nbsp; &amp;nbsp; &amp;nbsp; &amp;nbsp; " style="strokeWidth=2;html=1;shape=mxgraph.flowchart.start_2;whiteSpace=wrap;fillColor=#ff5f56;strokeColor=none;" vertex="1" parent="e7Vy6nSdRx5YWv6xTN5V-29">
          <mxGeometry x="2" y="2.0799999999999996" width="16" height="16.639999999999997" as="geometry" />
        </mxCell>
        <mxCell id="e7Vy6nSdRx5YWv6xTN5V-31" value="&amp;nbsp; &amp;nbsp; &amp;nbsp; &amp;nbsp; &amp;nbsp; &amp;nbsp; &amp;nbsp; " style="strokeWidth=2;html=1;shape=mxgraph.flowchart.start_2;whiteSpace=wrap;fillColor=#ffbd2e;strokeColor=none;" vertex="1" parent="e7Vy6nSdRx5YWv6xTN5V-29">
          <mxGeometry x="27" y="2.0799999999999996" width="16" height="16.639999999999997" as="geometry" />
        </mxCell>
        <mxCell id="e7Vy6nSdRx5YWv6xTN5V-32" value="&amp;nbsp; &amp;nbsp; &amp;nbsp; &amp;nbsp; &amp;nbsp; &amp;nbsp; &amp;nbsp; " style="strokeWidth=2;html=1;shape=mxgraph.flowchart.start_2;whiteSpace=wrap;fillColor=#1fa831;strokeColor=none;" vertex="1" parent="e7Vy6nSdRx5YWv6xTN5V-29">
          <mxGeometry x="52" y="2.0799999999999996" width="16" height="16.639999999999997" as="geometry" />
        </mxCell>
        <mxCell id="e7Vy6nSdRx5YWv6xTN5V-33" value="" style="group;flipH=0;" vertex="1" connectable="0" parent="1">
          <mxGeometry x="14" y="1660" width="340" height="50" as="geometry" />
        </mxCell>
        <mxCell id="e7Vy6nSdRx5YWv6xTN5V-34" value="Create a new directory named and move all the hierarchy into it." style="rounded=1;whiteSpace=wrap;html=1;fontSize=18;fillColor=#ffcccc;strokeColor=#000000;strokeWidth=2;fontFamily=Mina;arcSize=0;hachureGap=4;align=left;spacingRight=5;fontStyle=1;spacingLeft=32;" vertex="1" parent="e7Vy6nSdRx5YWv6xTN5V-33">
          <mxGeometry x="20" width="320" height="50" as="geometry" />
        </mxCell>
        <mxCell id="e7Vy6nSdRx5YWv6xTN5V-35" value="7" style="ellipse;whiteSpace=wrap;html=1;aspect=fixed;strokeWidth=2;fillColor=#e51400;strokeColor=#000000;fontFamily=Mina;fontStyle=1;fontSize=20;spacingTop=3;fontColor=#ffffff;" vertex="1" parent="e7Vy6nSdRx5YWv6xTN5V-33">
          <mxGeometry width="50" height="50" as="geometry" />
        </mxCell>
        <mxCell id="e7Vy6nSdRx5YWv6xTN5V-36" style="edgeStyle=orthogonalEdgeStyle;rounded=1;orthogonalLoop=1;jettySize=auto;html=1;strokeWidth=2;curved=0;" edge="1" parent="1" source="e7Vy6nSdRx5YWv6xTN5V-22" target="e7Vy6nSdRx5YWv6xTN5V-28">
          <mxGeometry relative="1" as="geometry" />
        </mxCell>
        <mxCell id="e7Vy6nSdRx5YWv6xTN5V-37" style="edgeStyle=orthogonalEdgeStyle;rounded=1;orthogonalLoop=1;jettySize=auto;html=1;strokeWidth=2;curved=0;" edge="1" parent="1" source="e7Vy6nSdRx5YWv6xTN5V-7" target="e7Vy6nSdRx5YWv6xTN5V-28">
          <mxGeometry relative="1" as="geometry">
            <Array as="points">
              <mxPoint x="420" y="1310" />
              <mxPoint x="420" y="1270" />
            </Array>
          </mxGeometry>
        </mxCell>
        <mxCell id="e7Vy6nSdRx5YWv6xTN5V-38" value="" style="group;flipH=0;" vertex="1" connectable="0" parent="1">
          <mxGeometry x="33" y="1740" width="280" height="100" as="geometry" />
        </mxCell>
        <mxCell id="e7Vy6nSdRx5YWv6xTN5V-39" value="&lt;div style=&quot;&quot;&gt;&lt;div style=&quot;line-height: 14px;&quot;&gt;&lt;div style=&quot;line-height: 19px;&quot;&gt;&lt;div style=&quot;line-height: 19px;&quot;&gt;&lt;div style=&quot;color: rgb(255, 255, 255); font-family: Consolas, &amp;quot;Courier New&amp;quot;, monospace; line-height: 19px; white-space: pre;&quot;&gt;&lt;div style=&quot;line-height: 19px;&quot;&gt;&lt;div style=&quot;color: rgb(56, 58, 66); line-height: 19px;&quot;&gt;&lt;div style=&quot;line-height: 19px;&quot;&gt;&lt;div style=&quot;line-height: 19px;&quot;&gt;&lt;div style=&quot;line-height: 19px;&quot;&gt;&lt;span style=&quot;color: #0184bc;&quot;&gt;cd&lt;/span&gt; &lt;span style=&quot;color: #50a14f;&quot;&gt;..&lt;/span&gt; &amp;amp;&amp;amp; &lt;span style=&quot;color: #4078f2;&quot;&gt;mkdir&lt;/span&gt; &lt;span style=&quot;color: #50a14f;&quot;&gt;newdir&lt;/span&gt; &amp;amp;&amp;amp; &lt;br&gt;&lt;span style=&quot;color: #4078f2;&quot;&gt;mv&lt;/span&gt; &lt;span style=&quot;color: #50a14f;&quot;&gt;my_directories&lt;/span&gt; &lt;span style=&quot;color: #50a14f;&quot;&gt;newdir&lt;/span&gt; &amp;amp;&amp;amp; &lt;span style=&quot;color: #4078f2;&quot;&gt;tree&lt;/span&gt;&lt;/div&gt;&lt;/div&gt;&lt;/div&gt;&lt;/div&gt;&lt;/div&gt;&lt;/div&gt;&lt;/div&gt;&lt;/div&gt;&lt;/div&gt;&lt;/div&gt;" style="rounded=1;whiteSpace=wrap;html=1;arcSize=9;strokeWidth=2;fillColor=#eeeeee;strokeColor=#000000;align=left;verticalAlign=top;spacing=15;spacingTop=31;fontSize=14;fontFamily=Mina;fontStyle=1;labelBackgroundColor=none;" vertex="1" parent="e7Vy6nSdRx5YWv6xTN5V-38">
          <mxGeometry width="280" height="100" as="geometry" />
        </mxCell>
        <mxCell id="e7Vy6nSdRx5YWv6xTN5V-40" value="" style="group;rounded=1;" vertex="1" connectable="0" parent="e7Vy6nSdRx5YWv6xTN5V-38">
          <mxGeometry x="13" y="19.895652173912367" width="72" height="21.885217391304348" as="geometry" />
        </mxCell>
        <mxCell id="e7Vy6nSdRx5YWv6xTN5V-41" value="&amp;nbsp; &amp;nbsp; &amp;nbsp; &amp;nbsp; &amp;nbsp; &amp;nbsp; &amp;nbsp; " style="strokeWidth=2;html=1;shape=mxgraph.flowchart.start_2;whiteSpace=wrap;fillColor=#ff5f56;strokeColor=none;rounded=1;" vertex="1" parent="e7Vy6nSdRx5YWv6xTN5V-40">
          <mxGeometry x="2" y="1.989565217391304" width="16" height="16" as="geometry" />
        </mxCell>
        <mxCell id="e7Vy6nSdRx5YWv6xTN5V-42" value="&amp;nbsp; &amp;nbsp; &amp;nbsp; &amp;nbsp; &amp;nbsp; &amp;nbsp; &amp;nbsp; " style="strokeWidth=2;html=1;shape=mxgraph.flowchart.start_2;whiteSpace=wrap;fillColor=#ffbd2e;strokeColor=none;rounded=1;" vertex="1" parent="e7Vy6nSdRx5YWv6xTN5V-40">
          <mxGeometry x="27" y="1.989565217391304" width="16" height="16" as="geometry" />
        </mxCell>
        <mxCell id="e7Vy6nSdRx5YWv6xTN5V-43" value="&amp;nbsp; &amp;nbsp; &amp;nbsp; &amp;nbsp; &amp;nbsp; &amp;nbsp; &amp;nbsp; " style="strokeWidth=2;html=1;shape=mxgraph.flowchart.start_2;whiteSpace=wrap;fillColor=#1fa831;strokeColor=none;rounded=1;" vertex="1" parent="e7Vy6nSdRx5YWv6xTN5V-40">
          <mxGeometry x="52" y="1.989565217391304" width="16" height="16" as="geometry" />
        </mxCell>
        <mxCell id="e7Vy6nSdRx5YWv6xTN5V-44" value="" style="group;flipH=0;" vertex="1" connectable="0" parent="1">
          <mxGeometry x="33" y="1870" width="280" height="344" as="geometry" />
        </mxCell>
        <mxCell id="e7Vy6nSdRx5YWv6xTN5V-45" value="&lt;div style=&quot;color: rgb(255, 255, 255); white-space: pre; font-size: 15px;&quot;&gt;&lt;pre style=&quot;font-size: 15px;&quot;&gt;&lt;pre style=&quot;font-size: 15px;&quot;&gt;&lt;pre style=&quot;font-size: 17px;&quot;&gt;&lt;pre&gt;.&lt;pre&gt;└── &lt;span style=&quot;color:#729FCF&quot;&gt;newdir&lt;/span&gt;&lt;br/&gt;    └── &lt;span style=&quot;color:#729FCF&quot;&gt;my_directories&lt;/span&gt;&lt;br/&gt;        ├── &lt;span style=&quot;color:#729FCF&quot;&gt;dir1&lt;/span&gt;&lt;br/&gt;        │&amp;nbsp;&amp;nbsp; ├── Mohamed&lt;br/&gt;        │&amp;nbsp;&amp;nbsp; └── f2&lt;br/&gt;        └── &lt;span style=&quot;color:#729FCF&quot;&gt;dir2&lt;/span&gt;&lt;br/&gt;            ├── f2&lt;br/&gt;            ├── f3&lt;br/&gt;            └── f4&lt;br/&gt;&lt;br/&gt;5 directories, 5 files&lt;br/&gt;&lt;/pre&gt;&lt;/pre&gt;&lt;/pre&gt;&lt;/pre&gt;&lt;/pre&gt;&lt;/div&gt;" style="rounded=1;whiteSpace=wrap;html=1;arcSize=6;strokeWidth=2;fillColor=#404552;strokeColor=none;align=left;verticalAlign=top;spacing=15;spacingTop=31;fontSize=15;fontFamily=Mina;fontStyle=1;labelBackgroundColor=none;" vertex="1" parent="e7Vy6nSdRx5YWv6xTN5V-44">
          <mxGeometry width="280" height="344" as="geometry" />
        </mxCell>
        <mxCell id="e7Vy6nSdRx5YWv6xTN5V-46" value="" style="group" vertex="1" connectable="0" parent="e7Vy6nSdRx5YWv6xTN5V-44">
          <mxGeometry x="13" y="20.80000000000001" width="72" height="22.88" as="geometry" />
        </mxCell>
        <mxCell id="e7Vy6nSdRx5YWv6xTN5V-47" value="&amp;nbsp; &amp;nbsp; &amp;nbsp; &amp;nbsp; &amp;nbsp; &amp;nbsp; &amp;nbsp; " style="strokeWidth=2;html=1;shape=mxgraph.flowchart.start_2;whiteSpace=wrap;fillColor=#ff5f56;strokeColor=none;" vertex="1" parent="e7Vy6nSdRx5YWv6xTN5V-46">
          <mxGeometry x="2" y="2.0799999999999996" width="16" height="16.639999999999997" as="geometry" />
        </mxCell>
        <mxCell id="e7Vy6nSdRx5YWv6xTN5V-48" value="&amp;nbsp; &amp;nbsp; &amp;nbsp; &amp;nbsp; &amp;nbsp; &amp;nbsp; &amp;nbsp; " style="strokeWidth=2;html=1;shape=mxgraph.flowchart.start_2;whiteSpace=wrap;fillColor=#ffbd2e;strokeColor=none;" vertex="1" parent="e7Vy6nSdRx5YWv6xTN5V-46">
          <mxGeometry x="27" y="2.0799999999999996" width="16" height="16.639999999999997" as="geometry" />
        </mxCell>
        <mxCell id="e7Vy6nSdRx5YWv6xTN5V-49" value="&amp;nbsp; &amp;nbsp; &amp;nbsp; &amp;nbsp; &amp;nbsp; &amp;nbsp; &amp;nbsp; " style="strokeWidth=2;html=1;shape=mxgraph.flowchart.start_2;whiteSpace=wrap;fillColor=#1fa831;strokeColor=none;" vertex="1" parent="e7Vy6nSdRx5YWv6xTN5V-46">
          <mxGeometry x="52" y="2.0799999999999996" width="16" height="16.639999999999997" as="geometry" />
        </mxCell>
        <mxCell id="e7Vy6nSdRx5YWv6xTN5V-50" value="" style="group;flipH=1;" vertex="1" connectable="0" parent="1">
          <mxGeometry x="473" y="1670" width="320" height="40" as="geometry" />
        </mxCell>
        <mxCell id="e7Vy6nSdRx5YWv6xTN5V-51" value="Show all optionally installed sw" style="rounded=1;whiteSpace=wrap;html=1;fontSize=18;fillColor=#ffcccc;strokeColor=#000000;strokeWidth=2;fontFamily=Mina;arcSize=0;hachureGap=4;align=left;spacingRight=5;fontStyle=1;spacingLeft=5;" vertex="1" parent="e7Vy6nSdRx5YWv6xTN5V-50">
          <mxGeometry width="300" height="40" as="geometry" />
        </mxCell>
        <mxCell id="e7Vy6nSdRx5YWv6xTN5V-52" value="8" style="ellipse;whiteSpace=wrap;html=1;aspect=fixed;strokeWidth=2;fillColor=#e51400;strokeColor=#000000;fontFamily=Mina;fontStyle=1;fontSize=20;spacingTop=3;fontColor=#ffffff;" vertex="1" parent="e7Vy6nSdRx5YWv6xTN5V-50">
          <mxGeometry x="280" width="40" height="40" as="geometry" />
        </mxCell>
        <mxCell id="e7Vy6nSdRx5YWv6xTN5V-53" value="" style="group;flipH=1;" vertex="1" connectable="0" parent="1">
          <mxGeometry x="523" y="1740" width="180" height="90" as="geometry" />
        </mxCell>
        <mxCell id="e7Vy6nSdRx5YWv6xTN5V-54" value="&lt;div style=&quot;&quot;&gt;&lt;div style=&quot;line-height: 14px;&quot;&gt;&lt;div style=&quot;line-height: 19px;&quot;&gt;&lt;div style=&quot;line-height: 19px;&quot;&gt;&lt;div style=&quot;color: rgb(255, 255, 255); font-family: Consolas, &amp;quot;Courier New&amp;quot;, monospace; line-height: 19px; white-space: pre;&quot;&gt;&lt;div style=&quot;line-height: 19px;&quot;&gt;&lt;div style=&quot;color: rgb(56, 58, 66); line-height: 19px;&quot;&gt;&lt;div style=&quot;line-height: 19px;&quot;&gt;&lt;div style=&quot;line-height: 19px;&quot;&gt;&lt;div style=&quot;line-height: 19px;&quot;&gt;&lt;div style=&quot;line-height: 19px;&quot;&gt;&lt;span style=&quot;color: #4078f2;&quot;&gt;apt&lt;/span&gt; &lt;span style=&quot;color: #50a14f;&quot;&gt;list&lt;/span&gt; &lt;span style=&quot;color: #986801;&quot;&gt;--installed&lt;/span&gt;&lt;/div&gt;&lt;/div&gt;&lt;/div&gt;&lt;/div&gt;&lt;/div&gt;&lt;/div&gt;&lt;/div&gt;&lt;/div&gt;&lt;/div&gt;&lt;/div&gt;&lt;/div&gt;" style="rounded=1;whiteSpace=wrap;html=1;arcSize=9;strokeWidth=2;fillColor=#eeeeee;strokeColor=#000000;align=left;verticalAlign=top;spacing=15;spacingTop=31;fontSize=14;fontFamily=Mina;fontStyle=1;labelBackgroundColor=none;" vertex="1" parent="e7Vy6nSdRx5YWv6xTN5V-53">
          <mxGeometry width="180" height="90" as="geometry" />
        </mxCell>
        <mxCell id="e7Vy6nSdRx5YWv6xTN5V-55" value="" style="group;rounded=1;" vertex="1" connectable="0" parent="e7Vy6nSdRx5YWv6xTN5V-53">
          <mxGeometry x="95" y="19.895652173912367" width="72" height="21.885217391304348" as="geometry" />
        </mxCell>
        <mxCell id="e7Vy6nSdRx5YWv6xTN5V-56" value="&amp;nbsp; &amp;nbsp; &amp;nbsp; &amp;nbsp; &amp;nbsp; &amp;nbsp; &amp;nbsp; " style="strokeWidth=2;html=1;shape=mxgraph.flowchart.start_2;whiteSpace=wrap;fillColor=#ff5f56;strokeColor=none;rounded=1;" vertex="1" parent="e7Vy6nSdRx5YWv6xTN5V-55">
          <mxGeometry x="2" y="1.989565217391304" width="16" height="16" as="geometry" />
        </mxCell>
        <mxCell id="e7Vy6nSdRx5YWv6xTN5V-57" value="&amp;nbsp; &amp;nbsp; &amp;nbsp; &amp;nbsp; &amp;nbsp; &amp;nbsp; &amp;nbsp; " style="strokeWidth=2;html=1;shape=mxgraph.flowchart.start_2;whiteSpace=wrap;fillColor=#ffbd2e;strokeColor=none;rounded=1;" vertex="1" parent="e7Vy6nSdRx5YWv6xTN5V-55">
          <mxGeometry x="27" y="1.989565217391304" width="16" height="16" as="geometry" />
        </mxCell>
        <mxCell id="e7Vy6nSdRx5YWv6xTN5V-58" value="&amp;nbsp; &amp;nbsp; &amp;nbsp; &amp;nbsp; &amp;nbsp; &amp;nbsp; &amp;nbsp; " style="strokeWidth=2;html=1;shape=mxgraph.flowchart.start_2;whiteSpace=wrap;fillColor=#1fa831;strokeColor=none;rounded=1;" vertex="1" parent="e7Vy6nSdRx5YWv6xTN5V-55">
          <mxGeometry x="52" y="1.989565217391304" width="16" height="16" as="geometry" />
        </mxCell>
        <mxCell id="e7Vy6nSdRx5YWv6xTN5V-59" value="" style="group;flipH=1;" vertex="1" connectable="0" parent="1">
          <mxGeometry x="433" y="1854" width="380" height="350" as="geometry" />
        </mxCell>
        <mxCell id="e7Vy6nSdRx5YWv6xTN5V-60" value="&lt;pre style=&quot;color: rgb(255, 255, 255); white-space: pre; font-size: 15px;&quot;&gt;&lt;pre style=&quot;font-size: 15px;&quot;&gt;&lt;pre style=&quot;font-size: 15px;&quot;&gt;&lt;pre style=&quot;font-size: 17px;&quot;&gt;&lt;pre&gt;&lt;pre&gt;&lt;pre&gt;&lt;span style=&quot;color:#4E9A06&quot;&gt;0trace&lt;/span&gt;/parrot6,now 0.01-3parrot2 &lt;br&gt;amd64 [installed,automatic]&lt;br&gt;&lt;span style=&quot;color:#4E9A06&quot;&gt;aardvark-dns&lt;/span&gt;/parrot6,now 1.4.0-3 &lt;br&gt;amd64 [installed,automatic]&lt;br&gt;&lt;span style=&quot;color:#4E9A06&quot;&gt;accountsservice&lt;/span&gt;/parrot6,now &lt;br&gt;22.08.8-6 amd64 [installed,&lt;br&gt;automatic]&lt;br&gt;&lt;span style=&quot;color:#4E9A06&quot;&gt;acl&lt;/span&gt;/parrot6,now 2.3.1-3 amd64 &lt;br&gt;[installed,automatic]&lt;br&gt;&lt;span style=&quot;color:#4E9A06&quot;&gt;adduser&lt;/span&gt;/parrot6,now 3.134 all &lt;br&gt;[installed]&lt;br&gt;&lt;span style=&quot;color:#4E9A06&quot;&gt;adwaita-icon-theme&lt;/span&gt;/parrot6,now &lt;br&gt;43-1 all [installed,automatic] ...&lt;br&gt;&lt;/pre&gt;&lt;/pre&gt;&lt;/pre&gt;&lt;/pre&gt;&lt;/pre&gt;&lt;/pre&gt;&lt;/pre&gt;" style="rounded=1;html=1;arcSize=6;strokeWidth=2;fillColor=#404552;strokeColor=none;align=left;verticalAlign=top;spacing=15;spacingTop=31;fontSize=15;fontFamily=Mina;fontStyle=1;labelBackgroundColor=none;whiteSpace=wrap;" vertex="1" parent="e7Vy6nSdRx5YWv6xTN5V-59">
          <mxGeometry width="380" height="350" as="geometry" />
        </mxCell>
        <mxCell id="e7Vy6nSdRx5YWv6xTN5V-61" value="" style="group" vertex="1" connectable="0" parent="e7Vy6nSdRx5YWv6xTN5V-59">
          <mxGeometry x="295" y="20.80000000000001" width="72" height="22.88" as="geometry" />
        </mxCell>
        <mxCell id="e7Vy6nSdRx5YWv6xTN5V-62" value="&amp;nbsp; &amp;nbsp; &amp;nbsp; &amp;nbsp; &amp;nbsp; &amp;nbsp; &amp;nbsp; " style="strokeWidth=2;html=1;shape=mxgraph.flowchart.start_2;whiteSpace=wrap;fillColor=#ff5f56;strokeColor=none;" vertex="1" parent="e7Vy6nSdRx5YWv6xTN5V-61">
          <mxGeometry x="2" y="2.0799999999999996" width="16" height="16.639999999999997" as="geometry" />
        </mxCell>
        <mxCell id="e7Vy6nSdRx5YWv6xTN5V-63" value="&amp;nbsp; &amp;nbsp; &amp;nbsp; &amp;nbsp; &amp;nbsp; &amp;nbsp; &amp;nbsp; " style="strokeWidth=2;html=1;shape=mxgraph.flowchart.start_2;whiteSpace=wrap;fillColor=#ffbd2e;strokeColor=none;" vertex="1" parent="e7Vy6nSdRx5YWv6xTN5V-61">
          <mxGeometry x="27" y="2.0799999999999996" width="16" height="16.639999999999997" as="geometry" />
        </mxCell>
        <mxCell id="e7Vy6nSdRx5YWv6xTN5V-64" value="&amp;nbsp; &amp;nbsp; &amp;nbsp; &amp;nbsp; &amp;nbsp; &amp;nbsp; &amp;nbsp; " style="strokeWidth=2;html=1;shape=mxgraph.flowchart.start_2;whiteSpace=wrap;fillColor=#1fa831;strokeColor=none;" vertex="1" parent="e7Vy6nSdRx5YWv6xTN5V-61">
          <mxGeometry x="52" y="2.0799999999999996" width="16" height="16.639999999999997" as="geometry" />
        </mxCell>
        <mxCell id="e7Vy6nSdRx5YWv6xTN5V-65" style="edgeStyle=elbowEdgeStyle;rounded=1;orthogonalLoop=1;jettySize=auto;html=1;strokeWidth=2;dashed=1;startArrow=none;startFill=0;endArrow=none;endFill=0;jumpSize=8;jumpStyle=line;shadow=0;flowAnimation=0;strokeColor=default;" edge="1" parent="1">
          <mxGeometry relative="1" as="geometry">
            <mxPoint x="389" y="2261.5999755859375" as="targetPoint" />
            <mxPoint x="389" y="1570" as="sourcePoint" />
          </mxGeometry>
        </mxCell>
        <mxCell id="e7Vy6nSdRx5YWv6xTN5V-79" value="" style="group;flipH=0;" vertex="1" connectable="0" parent="1">
          <mxGeometry x="20" y="2360" width="280" height="40" as="geometry" />
        </mxCell>
        <mxCell id="e7Vy6nSdRx5YWv6xTN5V-80" value="Show the contents of /root." style="rounded=1;whiteSpace=wrap;html=1;fontSize=18;fillColor=#ffcccc;strokeColor=#000000;strokeWidth=2;fontFamily=Mina;arcSize=0;hachureGap=4;align=left;spacingRight=5;fontStyle=1;spacingLeft=22;" vertex="1" parent="e7Vy6nSdRx5YWv6xTN5V-79">
          <mxGeometry x="20" width="260" height="40" as="geometry" />
        </mxCell>
        <mxCell id="e7Vy6nSdRx5YWv6xTN5V-81" value="9" style="ellipse;whiteSpace=wrap;html=1;aspect=fixed;strokeWidth=2;fillColor=#e51400;strokeColor=#000000;fontFamily=Mina;fontStyle=1;fontSize=20;spacingTop=3;fontColor=#ffffff;" vertex="1" parent="e7Vy6nSdRx5YWv6xTN5V-79">
          <mxGeometry width="40" height="40" as="geometry" />
        </mxCell>
        <mxCell id="e7Vy6nSdRx5YWv6xTN5V-82" value="" style="group;flipH=0;" vertex="1" connectable="0" parent="1">
          <mxGeometry x="70" y="2430" width="170" height="85" as="geometry" />
        </mxCell>
        <mxCell id="e7Vy6nSdRx5YWv6xTN5V-83" value="&lt;div style=&quot;&quot;&gt;&lt;div style=&quot;line-height: 14px;&quot;&gt;&lt;div style=&quot;line-height: 19px;&quot;&gt;&lt;div style=&quot;line-height: 19px;&quot;&gt;&lt;div style=&quot;color: rgb(255, 255, 255); font-family: Consolas, &amp;quot;Courier New&amp;quot;, monospace; line-height: 19px; white-space: pre;&quot;&gt;&lt;div style=&quot;line-height: 19px;&quot;&gt;&lt;div style=&quot;color: rgb(56, 58, 66); line-height: 19px;&quot;&gt;&lt;div style=&quot;line-height: 19px;&quot;&gt;&lt;div style=&quot;line-height: 19px;&quot;&gt;&lt;div style=&quot;line-height: 19px;&quot;&gt;&lt;div style=&quot;line-height: 19px;&quot;&gt;&lt;span style=&quot;color: #4078f2;&quot;&gt;sudo&lt;/span&gt; &lt;span style=&quot;color: #50a14f;&quot;&gt;tree&lt;/span&gt; &lt;span style=&quot;color: #50a14f;&quot;&gt;/root/&lt;/span&gt;&lt;/div&gt;&lt;/div&gt;&lt;/div&gt;&lt;/div&gt;&lt;/div&gt;&lt;/div&gt;&lt;/div&gt;&lt;/div&gt;&lt;/div&gt;&lt;/div&gt;&lt;/div&gt;" style="rounded=1;whiteSpace=wrap;html=1;arcSize=9;strokeWidth=2;fillColor=#eeeeee;strokeColor=#000000;align=left;verticalAlign=top;spacing=15;spacingTop=31;fontSize=14;fontFamily=Mina;fontStyle=1;labelBackgroundColor=none;" vertex="1" parent="e7Vy6nSdRx5YWv6xTN5V-82">
          <mxGeometry width="170" height="85" as="geometry" />
        </mxCell>
        <mxCell id="e7Vy6nSdRx5YWv6xTN5V-84" value="" style="group;rounded=1;" vertex="1" connectable="0" parent="e7Vy6nSdRx5YWv6xTN5V-82">
          <mxGeometry x="13" y="19.895652173912367" width="72" height="21.885217391304348" as="geometry" />
        </mxCell>
        <mxCell id="e7Vy6nSdRx5YWv6xTN5V-85" value="&amp;nbsp; &amp;nbsp; &amp;nbsp; &amp;nbsp; &amp;nbsp; &amp;nbsp; &amp;nbsp; " style="strokeWidth=2;html=1;shape=mxgraph.flowchart.start_2;whiteSpace=wrap;fillColor=#ff5f56;strokeColor=none;rounded=1;" vertex="1" parent="e7Vy6nSdRx5YWv6xTN5V-84">
          <mxGeometry x="2" y="1.989565217391304" width="16" height="16" as="geometry" />
        </mxCell>
        <mxCell id="e7Vy6nSdRx5YWv6xTN5V-86" value="&amp;nbsp; &amp;nbsp; &amp;nbsp; &amp;nbsp; &amp;nbsp; &amp;nbsp; &amp;nbsp; " style="strokeWidth=2;html=1;shape=mxgraph.flowchart.start_2;whiteSpace=wrap;fillColor=#ffbd2e;strokeColor=none;rounded=1;" vertex="1" parent="e7Vy6nSdRx5YWv6xTN5V-84">
          <mxGeometry x="27" y="1.989565217391304" width="16" height="16" as="geometry" />
        </mxCell>
        <mxCell id="e7Vy6nSdRx5YWv6xTN5V-87" value="&amp;nbsp; &amp;nbsp; &amp;nbsp; &amp;nbsp; &amp;nbsp; &amp;nbsp; &amp;nbsp; " style="strokeWidth=2;html=1;shape=mxgraph.flowchart.start_2;whiteSpace=wrap;fillColor=#1fa831;strokeColor=none;rounded=1;" vertex="1" parent="e7Vy6nSdRx5YWv6xTN5V-84">
          <mxGeometry x="52" y="1.989565217391304" width="16" height="16" as="geometry" />
        </mxCell>
        <mxCell id="e7Vy6nSdRx5YWv6xTN5V-88" value="" style="group;flipH=0;" vertex="1" connectable="0" parent="1">
          <mxGeometry x="20" y="2550" width="280" height="321" as="geometry" />
        </mxCell>
        <mxCell id="e7Vy6nSdRx5YWv6xTN5V-89" value="&lt;pre style=&quot;white-space: pre; font-size: 15px;&quot;&gt;&lt;pre style=&quot;font-size: 15px;&quot;&gt;&lt;pre style=&quot;font-size: 15px;&quot;&gt;&lt;pre style=&quot;font-size: 17px;&quot;&gt;&lt;pre style=&quot;&quot;&gt;&lt;pre style=&quot;&quot;&gt;&lt;font color=&quot;#729fcf&quot;&gt;﻿/root/&lt;/font&gt;&lt;pre style=&quot;color: rgb(255, 255, 255);&quot;&gt;├── &lt;span style=&quot;color:#729FCF&quot;&gt;Desktop&lt;/span&gt;&lt;br&gt;│&amp;nbsp;&amp;nbsp; └── &lt;span style=&quot;color:#8AE234&quot;&gt;README.license&lt;/span&gt;&lt;br&gt;└── &lt;span style=&quot;color:#729FCF&quot;&gt;Templates&lt;/span&gt;&lt;br&gt;    ├── &lt;span style=&quot;color:#729FCF&quot;&gt;prog&lt;/span&gt;&lt;br&gt;    │&amp;nbsp;&amp;nbsp; ├── &lt;span style=&quot;color:#8AE234&quot;&gt;ObjC.m&lt;/span&gt;&lt;br&gt;    │&amp;nbsp;&amp;nbsp; ├── &lt;span style=&quot;color:#8AE234&quot;&gt;assembly.asm&lt;/span&gt;&lt;br&gt;    │&amp;nbsp;&amp;nbsp; ├── &lt;span style=&quot;color:#8AE234&quot;&gt;bash-sh.sh&lt;/span&gt;&lt;br&gt;    │&amp;nbsp;&amp;nbsp; ├── &lt;span style=&quot;color:#8AE234&quot;&gt;c#.cs&lt;/span&gt;&lt;br&gt;    │&amp;nbsp;&amp;nbsp; ├── &lt;span style=&quot;color:#8AE234&quot;&gt;c++.cpp&lt;br/&gt;&lt;/span&gt;...&lt;/pre&gt;&lt;/pre&gt;&lt;/pre&gt;&lt;/pre&gt;&lt;/pre&gt;&lt;/pre&gt;&lt;/pre&gt;" style="rounded=1;whiteSpace=wrap;html=1;arcSize=6;strokeWidth=2;fillColor=#404552;strokeColor=none;align=left;verticalAlign=top;spacing=15;spacingTop=31;fontSize=15;fontFamily=Mina;fontStyle=1;labelBackgroundColor=none;" vertex="1" parent="e7Vy6nSdRx5YWv6xTN5V-88">
          <mxGeometry width="280" height="321" as="geometry" />
        </mxCell>
        <mxCell id="e7Vy6nSdRx5YWv6xTN5V-90" value="" style="group" vertex="1" connectable="0" parent="e7Vy6nSdRx5YWv6xTN5V-88">
          <mxGeometry x="13" y="20.80000000000001" width="72" height="22.88" as="geometry" />
        </mxCell>
        <mxCell id="e7Vy6nSdRx5YWv6xTN5V-91" value="&amp;nbsp; &amp;nbsp; &amp;nbsp; &amp;nbsp; &amp;nbsp; &amp;nbsp; &amp;nbsp; " style="strokeWidth=2;html=1;shape=mxgraph.flowchart.start_2;whiteSpace=wrap;fillColor=#ff5f56;strokeColor=none;" vertex="1" parent="e7Vy6nSdRx5YWv6xTN5V-90">
          <mxGeometry x="2" y="2.0799999999999996" width="16" height="16.639999999999997" as="geometry" />
        </mxCell>
        <mxCell id="e7Vy6nSdRx5YWv6xTN5V-92" value="&amp;nbsp; &amp;nbsp; &amp;nbsp; &amp;nbsp; &amp;nbsp; &amp;nbsp; &amp;nbsp; " style="strokeWidth=2;html=1;shape=mxgraph.flowchart.start_2;whiteSpace=wrap;fillColor=#ffbd2e;strokeColor=none;" vertex="1" parent="e7Vy6nSdRx5YWv6xTN5V-90">
          <mxGeometry x="27" y="2.0799999999999996" width="16" height="16.639999999999997" as="geometry" />
        </mxCell>
        <mxCell id="e7Vy6nSdRx5YWv6xTN5V-93" value="&amp;nbsp; &amp;nbsp; &amp;nbsp; &amp;nbsp; &amp;nbsp; &amp;nbsp; &amp;nbsp; " style="strokeWidth=2;html=1;shape=mxgraph.flowchart.start_2;whiteSpace=wrap;fillColor=#1fa831;strokeColor=none;" vertex="1" parent="e7Vy6nSdRx5YWv6xTN5V-90">
          <mxGeometry x="52" y="2.0799999999999996" width="16" height="16.639999999999997" as="geometry" />
        </mxCell>
        <mxCell id="e7Vy6nSdRx5YWv6xTN5V-94" value="" style="group;flipH=1;" vertex="1" connectable="0" parent="1">
          <mxGeometry x="473" y="2360" width="320" height="50" as="geometry" />
        </mxCell>
        <mxCell id="e7Vy6nSdRx5YWv6xTN5V-95" value="Return to your home directory (mentioned 3 ways)" style="rounded=1;whiteSpace=wrap;html=1;fontSize=18;fillColor=#ffcccc;strokeColor=#000000;strokeWidth=2;fontFamily=Mina;arcSize=0;hachureGap=4;align=left;spacingRight=5;fontStyle=1;spacingLeft=5;" vertex="1" parent="e7Vy6nSdRx5YWv6xTN5V-94">
          <mxGeometry width="300" height="50" as="geometry" />
        </mxCell>
        <mxCell id="e7Vy6nSdRx5YWv6xTN5V-96" value="10" style="ellipse;whiteSpace=wrap;html=1;aspect=fixed;strokeWidth=2;fillColor=#e51400;strokeColor=#000000;fontFamily=Mina;fontStyle=1;fontSize=20;spacingTop=3;fontColor=#ffffff;" vertex="1" parent="e7Vy6nSdRx5YWv6xTN5V-94">
          <mxGeometry x="270" width="50" height="50" as="geometry" />
        </mxCell>
        <mxCell id="e7Vy6nSdRx5YWv6xTN5V-97" value="" style="group;flipH=1;" vertex="1" connectable="0" parent="1">
          <mxGeometry x="523" y="2430" width="180" height="120" as="geometry" />
        </mxCell>
        <mxCell id="e7Vy6nSdRx5YWv6xTN5V-98" value="&lt;div style=&quot;&quot;&gt;&lt;div style=&quot;line-height: 14px;&quot;&gt;&lt;div style=&quot;line-height: 19px;&quot;&gt;&lt;div style=&quot;line-height: 19px;&quot;&gt;&lt;div style=&quot;font-family: Consolas, &amp;quot;Courier New&amp;quot;, monospace; line-height: 19px; white-space: pre;&quot;&gt;&lt;div style=&quot;line-height: 19px;&quot;&gt;&lt;div style=&quot;line-height: 19px;&quot;&gt;&lt;div style=&quot;line-height: 19px;&quot;&gt;&lt;div style=&quot;line-height: 19px;&quot;&gt;&lt;div style=&quot;line-height: 19px;&quot;&gt;&lt;div style=&quot;line-height: 19px;&quot;&gt;&lt;div style=&quot;color: rgb(56, 58, 66); line-height: 19px;&quot;&gt;&lt;div&gt;&lt;span style=&quot;color: #0184bc;&quot;&gt;cd&lt;/span&gt;&lt;/div&gt;&lt;div&gt;&lt;span style=&quot;color: #0184bc;&quot;&gt;cd&lt;/span&gt; &lt;span style=&quot;color: #50a14f;&quot;&gt;~&lt;/span&gt;&lt;/div&gt;&lt;div&gt;&lt;span style=&quot;color: #0184bc;&quot;&gt;cd&lt;/span&gt; &lt;span style=&quot;color: #e45649;&quot;&gt;$HOME&lt;/span&gt;&lt;/div&gt;&lt;/div&gt;&lt;/div&gt;&lt;/div&gt;&lt;/div&gt;&lt;/div&gt;&lt;/div&gt;&lt;/div&gt;&lt;/div&gt;&lt;/div&gt;&lt;/div&gt;&lt;/div&gt;&lt;/div&gt;" style="rounded=1;whiteSpace=wrap;html=1;arcSize=9;strokeWidth=2;fillColor=#eeeeee;strokeColor=#000000;align=left;verticalAlign=top;spacing=15;spacingTop=31;fontSize=14;fontFamily=Mina;fontStyle=1;labelBackgroundColor=none;" vertex="1" parent="e7Vy6nSdRx5YWv6xTN5V-97">
          <mxGeometry width="180" height="120" as="geometry" />
        </mxCell>
        <mxCell id="e7Vy6nSdRx5YWv6xTN5V-99" value="" style="group;rounded=1;" vertex="1" connectable="0" parent="e7Vy6nSdRx5YWv6xTN5V-97">
          <mxGeometry x="95" y="19.895652173912367" width="72" height="21.885217391304348" as="geometry" />
        </mxCell>
        <mxCell id="e7Vy6nSdRx5YWv6xTN5V-100" value="&amp;nbsp; &amp;nbsp; &amp;nbsp; &amp;nbsp; &amp;nbsp; &amp;nbsp; &amp;nbsp; " style="strokeWidth=2;html=1;shape=mxgraph.flowchart.start_2;whiteSpace=wrap;fillColor=#ff5f56;strokeColor=none;rounded=1;" vertex="1" parent="e7Vy6nSdRx5YWv6xTN5V-99">
          <mxGeometry x="2" y="1.989565217391304" width="16" height="16" as="geometry" />
        </mxCell>
        <mxCell id="e7Vy6nSdRx5YWv6xTN5V-101" value="&amp;nbsp; &amp;nbsp; &amp;nbsp; &amp;nbsp; &amp;nbsp; &amp;nbsp; &amp;nbsp; " style="strokeWidth=2;html=1;shape=mxgraph.flowchart.start_2;whiteSpace=wrap;fillColor=#ffbd2e;strokeColor=none;rounded=1;" vertex="1" parent="e7Vy6nSdRx5YWv6xTN5V-99">
          <mxGeometry x="27" y="1.989565217391304" width="16" height="16" as="geometry" />
        </mxCell>
        <mxCell id="e7Vy6nSdRx5YWv6xTN5V-102" value="&amp;nbsp; &amp;nbsp; &amp;nbsp; &amp;nbsp; &amp;nbsp; &amp;nbsp; &amp;nbsp; " style="strokeWidth=2;html=1;shape=mxgraph.flowchart.start_2;whiteSpace=wrap;fillColor=#1fa831;strokeColor=none;rounded=1;" vertex="1" parent="e7Vy6nSdRx5YWv6xTN5V-99">
          <mxGeometry x="52" y="1.989565217391304" width="16" height="16" as="geometry" />
        </mxCell>
        <mxCell id="e7Vy6nSdRx5YWv6xTN5V-103" value="" style="group;flipH=1;" vertex="1" connectable="0" parent="1">
          <mxGeometry x="510" y="2573" width="220" height="150" as="geometry" />
        </mxCell>
        <mxCell id="e7Vy6nSdRx5YWv6xTN5V-104" value="&lt;pre style=&quot;color: rgb(255, 255, 255); white-space: pre; font-size: 15px;&quot;&gt;&lt;pre style=&quot;font-size: 15px;&quot;&gt;&lt;pre style=&quot;font-size: 15px;&quot;&gt;&lt;pre style=&quot;font-size: 17px;&quot;&gt;&lt;pre&gt;&lt;pre&gt;&lt;pre&gt;&lt;font face=&quot;monospace&quot;&gt;&lt;span style=&quot;background-color: initial; color: rgb(204, 0, 0);&quot;&gt;┌─[&lt;/span&gt;&lt;span style=&quot;background-color: initial;&quot;&gt;user&lt;/span&gt;&lt;b style=&quot;background-color: initial;&quot;&gt;@&lt;/b&gt;&lt;span style=&quot;background-color: initial; color: rgb(52, 226, 226);&quot;&gt;parrot&lt;/span&gt;&lt;span style=&quot;background-color: initial; color: rgb(204, 0, 0);&quot;&gt;]─[&lt;/span&gt;&lt;span style=&quot;background-color: initial; color: rgb(78, 154, 6);&quot;&gt;~&lt;/span&gt;&lt;span style=&quot;background-color: initial; color: rgb(204, 0, 0);&quot;&gt;]&lt;/span&gt;&lt;br&gt;&lt;/font&gt;&lt;/pre&gt;&lt;pre&gt;&lt;pre&gt;&lt;font face=&quot;Sb7txXSy3lFgJNoVisHz&quot;&gt;&lt;span style=&quot;color:#CC0000&quot;&gt;└──╼ &lt;/span&gt;&lt;b&gt;$&lt;/b&gt;&lt;/font&gt;&lt;/pre&gt;&lt;/pre&gt;&lt;/pre&gt;&lt;/pre&gt;&lt;/pre&gt;&lt;/pre&gt;&lt;/pre&gt;&lt;/pre&gt;" style="rounded=1;html=1;arcSize=8;strokeWidth=2;fillColor=#404552;strokeColor=none;align=left;verticalAlign=top;spacing=15;spacingTop=31;fontSize=15;fontFamily=Mina;fontStyle=1;labelBackgroundColor=none;whiteSpace=wrap;" vertex="1" parent="e7Vy6nSdRx5YWv6xTN5V-103">
          <mxGeometry width="220" height="150" as="geometry" />
        </mxCell>
        <mxCell id="e7Vy6nSdRx5YWv6xTN5V-105" value="" style="group" vertex="1" connectable="0" parent="e7Vy6nSdRx5YWv6xTN5V-103">
          <mxGeometry x="135" y="20.80000000000001" width="72" height="22.88" as="geometry" />
        </mxCell>
        <mxCell id="e7Vy6nSdRx5YWv6xTN5V-106" value="&amp;nbsp; &amp;nbsp; &amp;nbsp; &amp;nbsp; &amp;nbsp; &amp;nbsp; &amp;nbsp; " style="strokeWidth=2;html=1;shape=mxgraph.flowchart.start_2;whiteSpace=wrap;fillColor=#ff5f56;strokeColor=none;" vertex="1" parent="e7Vy6nSdRx5YWv6xTN5V-105">
          <mxGeometry x="2" y="2.0799999999999996" width="16" height="16.639999999999997" as="geometry" />
        </mxCell>
        <mxCell id="e7Vy6nSdRx5YWv6xTN5V-107" value="&amp;nbsp; &amp;nbsp; &amp;nbsp; &amp;nbsp; &amp;nbsp; &amp;nbsp; &amp;nbsp; " style="strokeWidth=2;html=1;shape=mxgraph.flowchart.start_2;whiteSpace=wrap;fillColor=#ffbd2e;strokeColor=none;" vertex="1" parent="e7Vy6nSdRx5YWv6xTN5V-105">
          <mxGeometry x="27" y="2.0799999999999996" width="16" height="16.639999999999997" as="geometry" />
        </mxCell>
        <mxCell id="e7Vy6nSdRx5YWv6xTN5V-108" value="&amp;nbsp; &amp;nbsp; &amp;nbsp; &amp;nbsp; &amp;nbsp; &amp;nbsp; &amp;nbsp; " style="strokeWidth=2;html=1;shape=mxgraph.flowchart.start_2;whiteSpace=wrap;fillColor=#1fa831;strokeColor=none;" vertex="1" parent="e7Vy6nSdRx5YWv6xTN5V-105">
          <mxGeometry x="52" y="2.0799999999999996" width="16" height="16.639999999999997" as="geometry" />
        </mxCell>
        <mxCell id="e7Vy6nSdRx5YWv6xTN5V-109" value="" style="group;flipH=0;" vertex="1" connectable="0" parent="1">
          <mxGeometry x="20" y="2900" width="440" height="50" as="geometry" />
        </mxCell>
        <mxCell id="e7Vy6nSdRx5YWv6xTN5V-110" value="&lt;div&gt;Copy the passwd file to your home directory making its name is&amp;nbsp;&lt;span style=&quot;background-color: initial;&quot;&gt;mypasswd&lt;/span&gt;&lt;/div&gt;" style="rounded=1;whiteSpace=wrap;html=1;fontSize=18;fillColor=#ffcccc;strokeColor=#000000;strokeWidth=2;fontFamily=Mina;arcSize=0;hachureGap=4;align=left;spacingRight=5;fontStyle=1;spacingLeft=23;" vertex="1" parent="e7Vy6nSdRx5YWv6xTN5V-109">
          <mxGeometry x="20" width="360" height="50" as="geometry" />
        </mxCell>
        <mxCell id="e7Vy6nSdRx5YWv6xTN5V-111" value="11" style="ellipse;whiteSpace=wrap;html=1;aspect=fixed;strokeWidth=2;fillColor=#e51400;strokeColor=#000000;fontFamily=Mina;fontStyle=1;fontSize=20;spacingTop=3;fontColor=#ffffff;" vertex="1" parent="e7Vy6nSdRx5YWv6xTN5V-109">
          <mxGeometry x="-10" width="50" height="50" as="geometry" />
        </mxCell>
        <mxCell id="e7Vy6nSdRx5YWv6xTN5V-112" value="" style="group;flipH=0;" vertex="1" connectable="0" parent="1">
          <mxGeometry x="70" y="2980" width="220" height="100" as="geometry" />
        </mxCell>
        <mxCell id="e7Vy6nSdRx5YWv6xTN5V-113" value="&lt;div style=&quot;&quot;&gt;&lt;div style=&quot;line-height: 14px;&quot;&gt;&lt;div style=&quot;line-height: 19px;&quot;&gt;&lt;div style=&quot;line-height: 19px;&quot;&gt;&lt;div style=&quot;color: rgb(255, 255, 255); font-family: Consolas, &amp;quot;Courier New&amp;quot;, monospace; line-height: 19px; white-space: pre;&quot;&gt;&lt;div style=&quot;line-height: 19px;&quot;&gt;&lt;div style=&quot;color: rgb(56, 58, 66); line-height: 19px;&quot;&gt;&lt;div style=&quot;line-height: 19px;&quot;&gt;&lt;div style=&quot;line-height: 19px;&quot;&gt;&lt;div style=&quot;line-height: 19px;&quot;&gt;&lt;div style=&quot;line-height: 19px;&quot;&gt;&lt;span style=&quot;color: rgb(64, 120, 242);&quot;&gt;cp&lt;/span&gt; &lt;span style=&quot;color: rgb(80, 161, 79);&quot;&gt;/etc/passwd&lt;/span&gt; &lt;span style=&quot;color: rgb(80, 161, 79);&quot;&gt;~/mypasswd&lt;/span&gt; &lt;br&gt;&amp;amp;&amp;amp; &lt;span style=&quot;color: rgb(64, 120, 242);&quot;&gt;cat&lt;/span&gt; &lt;span style=&quot;color: rgb(80, 161, 79);&quot;&gt;mypasswd&lt;/span&gt;&lt;br&gt;&lt;/div&gt;&lt;/div&gt;&lt;/div&gt;&lt;/div&gt;&lt;/div&gt;&lt;/div&gt;&lt;/div&gt;&lt;/div&gt;&lt;/div&gt;&lt;/div&gt;&lt;/div&gt;" style="rounded=1;whiteSpace=wrap;html=1;arcSize=9;strokeWidth=2;fillColor=#eeeeee;strokeColor=#000000;align=left;verticalAlign=top;spacing=15;spacingTop=31;fontSize=14;fontFamily=Mina;fontStyle=1;labelBackgroundColor=none;" vertex="1" parent="e7Vy6nSdRx5YWv6xTN5V-112">
          <mxGeometry width="220" height="100" as="geometry" />
        </mxCell>
        <mxCell id="e7Vy6nSdRx5YWv6xTN5V-114" value="" style="group;rounded=1;" vertex="1" connectable="0" parent="e7Vy6nSdRx5YWv6xTN5V-112">
          <mxGeometry x="13" y="19.895652173912367" width="72" height="21.885217391304348" as="geometry" />
        </mxCell>
        <mxCell id="e7Vy6nSdRx5YWv6xTN5V-115" value="&amp;nbsp; &amp;nbsp; &amp;nbsp; &amp;nbsp; &amp;nbsp; &amp;nbsp; &amp;nbsp; " style="strokeWidth=2;html=1;shape=mxgraph.flowchart.start_2;whiteSpace=wrap;fillColor=#ff5f56;strokeColor=none;rounded=1;" vertex="1" parent="e7Vy6nSdRx5YWv6xTN5V-114">
          <mxGeometry x="2" y="1.989565217391304" width="16" height="16" as="geometry" />
        </mxCell>
        <mxCell id="e7Vy6nSdRx5YWv6xTN5V-116" value="&amp;nbsp; &amp;nbsp; &amp;nbsp; &amp;nbsp; &amp;nbsp; &amp;nbsp; &amp;nbsp; " style="strokeWidth=2;html=1;shape=mxgraph.flowchart.start_2;whiteSpace=wrap;fillColor=#ffbd2e;strokeColor=none;rounded=1;" vertex="1" parent="e7Vy6nSdRx5YWv6xTN5V-114">
          <mxGeometry x="27" y="1.989565217391304" width="16" height="16" as="geometry" />
        </mxCell>
        <mxCell id="e7Vy6nSdRx5YWv6xTN5V-117" value="&amp;nbsp; &amp;nbsp; &amp;nbsp; &amp;nbsp; &amp;nbsp; &amp;nbsp; &amp;nbsp; " style="strokeWidth=2;html=1;shape=mxgraph.flowchart.start_2;whiteSpace=wrap;fillColor=#1fa831;strokeColor=none;rounded=1;" vertex="1" parent="e7Vy6nSdRx5YWv6xTN5V-114">
          <mxGeometry x="52" y="1.989565217391304" width="16" height="16" as="geometry" />
        </mxCell>
        <mxCell id="e7Vy6nSdRx5YWv6xTN5V-118" value="" style="group;flipH=0;" vertex="1" connectable="0" parent="1">
          <mxGeometry x="33" y="3110" width="330" height="250" as="geometry" />
        </mxCell>
        <mxCell id="e7Vy6nSdRx5YWv6xTN5V-119" value="&lt;pre style=&quot;white-space: pre; font-size: 15px;&quot;&gt;&lt;pre style=&quot;font-size: 15px;&quot;&gt;&lt;pre style=&quot;font-size: 15px;&quot;&gt;&lt;pre style=&quot;font-size: 17px;&quot;&gt;&lt;pre style=&quot;&quot;&gt;&lt;pre style=&quot;&quot;&gt;&lt;pre style=&quot;color: rgb(255, 255, 255);&quot;&gt;root:x:0:0:root:/root:&lt;br&gt;/bin/bash&lt;br&gt;daemon:x:1:1:daemon:/usr/sbin:&lt;br&gt;/usr/sbin/nologin&lt;br&gt;bin:x:2:2:bin:/bin:&lt;br&gt;/usr/sbin/nologin&lt;br&gt;sys:x:3:3:sys:/dev:&lt;br&gt;/usr/sbin/nologin ...&lt;/pre&gt;&lt;/pre&gt;&lt;/pre&gt;&lt;/pre&gt;&lt;/pre&gt;&lt;/pre&gt;&lt;/pre&gt;" style="rounded=1;whiteSpace=wrap;html=1;arcSize=5;strokeWidth=2;fillColor=#404552;strokeColor=none;align=left;verticalAlign=top;spacing=15;spacingTop=31;fontSize=15;fontFamily=Mina;fontStyle=1;labelBackgroundColor=none;" vertex="1" parent="e7Vy6nSdRx5YWv6xTN5V-118">
          <mxGeometry width="330" height="250" as="geometry" />
        </mxCell>
        <mxCell id="e7Vy6nSdRx5YWv6xTN5V-120" value="" style="group" vertex="1" connectable="0" parent="e7Vy6nSdRx5YWv6xTN5V-118">
          <mxGeometry x="13" y="20.80000000000001" width="72" height="22.88" as="geometry" />
        </mxCell>
        <mxCell id="e7Vy6nSdRx5YWv6xTN5V-121" value="&amp;nbsp; &amp;nbsp; &amp;nbsp; &amp;nbsp; &amp;nbsp; &amp;nbsp; &amp;nbsp; " style="strokeWidth=2;html=1;shape=mxgraph.flowchart.start_2;whiteSpace=wrap;fillColor=#ff5f56;strokeColor=none;" vertex="1" parent="e7Vy6nSdRx5YWv6xTN5V-120">
          <mxGeometry x="2" y="2.0799999999999996" width="16" height="16.639999999999997" as="geometry" />
        </mxCell>
        <mxCell id="e7Vy6nSdRx5YWv6xTN5V-122" value="&amp;nbsp; &amp;nbsp; &amp;nbsp; &amp;nbsp; &amp;nbsp; &amp;nbsp; &amp;nbsp; " style="strokeWidth=2;html=1;shape=mxgraph.flowchart.start_2;whiteSpace=wrap;fillColor=#ffbd2e;strokeColor=none;" vertex="1" parent="e7Vy6nSdRx5YWv6xTN5V-120">
          <mxGeometry x="27" y="2.0799999999999996" width="16" height="16.639999999999997" as="geometry" />
        </mxCell>
        <mxCell id="e7Vy6nSdRx5YWv6xTN5V-123" value="&amp;nbsp; &amp;nbsp; &amp;nbsp; &amp;nbsp; &amp;nbsp; &amp;nbsp; &amp;nbsp; " style="strokeWidth=2;html=1;shape=mxgraph.flowchart.start_2;whiteSpace=wrap;fillColor=#1fa831;strokeColor=none;" vertex="1" parent="e7Vy6nSdRx5YWv6xTN5V-120">
          <mxGeometry x="52" y="2.0799999999999996" width="16" height="16.639999999999997" as="geometry" />
        </mxCell>
        <mxCell id="e7Vy6nSdRx5YWv6xTN5V-124" value="" style="group;flipH=1;" vertex="1" connectable="0" parent="1">
          <mxGeometry x="473" y="2770" width="320" height="50" as="geometry" />
        </mxCell>
        <mxCell id="e7Vy6nSdRx5YWv6xTN5V-125" value="What is the difference between cat and more command?" style="rounded=1;whiteSpace=wrap;html=1;fontSize=18;fillColor=#ffcccc;strokeColor=#000000;strokeWidth=2;fontFamily=Mina;arcSize=0;hachureGap=4;align=left;spacingRight=5;fontStyle=1;spacingLeft=5;" vertex="1" parent="e7Vy6nSdRx5YWv6xTN5V-124">
          <mxGeometry width="300" height="50" as="geometry" />
        </mxCell>
        <mxCell id="e7Vy6nSdRx5YWv6xTN5V-126" value="12" style="ellipse;whiteSpace=wrap;html=1;aspect=fixed;strokeWidth=2;fillColor=#e51400;strokeColor=#000000;fontFamily=Mina;fontStyle=1;fontSize=20;spacingTop=3;fontColor=#ffffff;" vertex="1" parent="e7Vy6nSdRx5YWv6xTN5V-124">
          <mxGeometry x="270" width="50" height="50" as="geometry" />
        </mxCell>
        <mxCell id="e7Vy6nSdRx5YWv6xTN5V-139" value="" style="group;flipH=1;" vertex="1" connectable="0" parent="1">
          <mxGeometry x="630" y="2850" width="180" height="90" as="geometry" />
        </mxCell>
        <mxCell id="e7Vy6nSdRx5YWv6xTN5V-140" value="concatenate the file content then display" style="rounded=1;whiteSpace=wrap;html=1;hachureGap=4;fontFamily=Mina;strokeWidth=2;fillColor=#cce5ff;strokeColor=#000000;fontSize=16;fontStyle=1;labelBorderColor=none;textShadow=0;labelBackgroundColor=none;align=left;spacing=7;verticalAlign=middle;" vertex="1" parent="e7Vy6nSdRx5YWv6xTN5V-139">
          <mxGeometry y="40" width="180" height="50" as="geometry" />
        </mxCell>
        <mxCell id="e7Vy6nSdRx5YWv6xTN5V-141" value="Cat" style="rounded=1;whiteSpace=wrap;html=1;hachureGap=4;fontFamily=Mina;strokeWidth=2;fillColor=#0050ef;strokeColor=#000000;fontSize=22;fontStyle=1;labelBorderColor=none;textShadow=0;labelBackgroundColor=none;align=center;spacing=5;verticalAlign=middle;spacingTop=0;spacingRight=2;fontColor=#ffffff;container=0;" vertex="1" parent="e7Vy6nSdRx5YWv6xTN5V-139">
          <mxGeometry x="90" width="70" height="40" as="geometry" />
        </mxCell>
        <mxCell id="e7Vy6nSdRx5YWv6xTN5V-142" value="" style="group;flipH=1;" vertex="1" connectable="0" parent="1">
          <mxGeometry x="470" y="2860" width="130" height="80" as="geometry" />
        </mxCell>
        <mxCell id="e7Vy6nSdRx5YWv6xTN5V-143" value="display content" style="rounded=1;whiteSpace=wrap;html=1;hachureGap=4;fontFamily=Mina;strokeWidth=2;fillColor=#ffcc99;strokeColor=#000000;fontSize=16;fontStyle=1;labelBorderColor=none;textShadow=0;labelBackgroundColor=none;align=left;spacing=7;verticalAlign=middle;" vertex="1" parent="e7Vy6nSdRx5YWv6xTN5V-142">
          <mxGeometry y="40" width="130" height="40" as="geometry" />
        </mxCell>
        <mxCell id="e7Vy6nSdRx5YWv6xTN5V-144" value="More" style="rounded=1;whiteSpace=wrap;html=1;hachureGap=4;fontFamily=Mina;strokeWidth=2;fillColor=#a0522d;strokeColor=#000000;fontSize=22;fontStyle=1;labelBorderColor=none;textShadow=0;labelBackgroundColor=none;align=center;spacing=5;verticalAlign=middle;spacingTop=0;spacingRight=2;fontColor=#ffffff;container=0;" vertex="1" parent="e7Vy6nSdRx5YWv6xTN5V-142">
          <mxGeometry x="30" width="80" height="40" as="geometry" />
        </mxCell>
        <mxCell id="e7Vy6nSdRx5YWv6xTN5V-145" value="" style="group;flipH=1;" vertex="1" connectable="0" parent="1">
          <mxGeometry x="470" y="2970" width="320" height="50" as="geometry" />
        </mxCell>
        <mxCell id="e7Vy6nSdRx5YWv6xTN5V-146" value="Display the first 4 lines of /etc/passwd." style="rounded=1;whiteSpace=wrap;html=1;fontSize=18;fillColor=#ffcccc;strokeColor=#000000;strokeWidth=2;fontFamily=Mina;arcSize=0;hachureGap=4;align=left;spacingRight=5;fontStyle=1;spacingLeft=5;" vertex="1" parent="e7Vy6nSdRx5YWv6xTN5V-145">
          <mxGeometry x="40" width="260" height="50" as="geometry" />
        </mxCell>
        <mxCell id="e7Vy6nSdRx5YWv6xTN5V-147" value="13" style="ellipse;whiteSpace=wrap;html=1;aspect=fixed;strokeWidth=2;fillColor=#e51400;strokeColor=#000000;fontFamily=Mina;fontStyle=1;fontSize=20;spacingTop=3;fontColor=#ffffff;" vertex="1" parent="e7Vy6nSdRx5YWv6xTN5V-145">
          <mxGeometry x="270" width="50" height="50" as="geometry" />
        </mxCell>
        <mxCell id="e7Vy6nSdRx5YWv6xTN5V-148" value="" style="group;flipH=1;" vertex="1" connectable="0" parent="1">
          <mxGeometry x="560" y="3050" width="190" height="80" as="geometry" />
        </mxCell>
        <mxCell id="e7Vy6nSdRx5YWv6xTN5V-149" value="&lt;div style=&quot;&quot;&gt;&lt;div style=&quot;line-height: 14px;&quot;&gt;&lt;div style=&quot;line-height: 19px;&quot;&gt;&lt;div style=&quot;line-height: 19px;&quot;&gt;&lt;div style=&quot;font-family: Consolas, &amp;quot;Courier New&amp;quot;, monospace; line-height: 19px; white-space: pre;&quot;&gt;&lt;div style=&quot;line-height: 19px;&quot;&gt;&lt;div style=&quot;line-height: 19px;&quot;&gt;&lt;div style=&quot;line-height: 19px;&quot;&gt;&lt;div style=&quot;line-height: 19px;&quot;&gt;&lt;div style=&quot;line-height: 19px;&quot;&gt;&lt;div style=&quot;line-height: 19px;&quot;&gt;&lt;div style=&quot;color: rgb(56, 58, 66); line-height: 19px;&quot;&gt;&lt;div style=&quot;line-height: 19px;&quot;&gt;&lt;span style=&quot;color: #4078f2;&quot;&gt;head&lt;/span&gt; &lt;span style=&quot;color: #986801;&quot;&gt;-n&lt;/span&gt; &lt;span style=&quot;color: #986801;&quot;&gt;4&lt;/span&gt; &lt;span style=&quot;color: #50a14f;&quot;&gt;/etc/passwd&lt;/span&gt;&lt;/div&gt;&lt;/div&gt;&lt;/div&gt;&lt;/div&gt;&lt;/div&gt;&lt;/div&gt;&lt;/div&gt;&lt;/div&gt;&lt;/div&gt;&lt;/div&gt;&lt;/div&gt;&lt;/div&gt;&lt;/div&gt;" style="rounded=1;whiteSpace=wrap;html=1;arcSize=9;strokeWidth=2;fillColor=#eeeeee;strokeColor=#000000;align=left;verticalAlign=top;spacing=15;spacingTop=31;fontSize=14;fontFamily=Mina;fontStyle=1;labelBackgroundColor=none;" vertex="1" parent="e7Vy6nSdRx5YWv6xTN5V-148">
          <mxGeometry width="190" height="80" as="geometry" />
        </mxCell>
        <mxCell id="e7Vy6nSdRx5YWv6xTN5V-150" value="" style="group;rounded=1;" vertex="1" connectable="0" parent="e7Vy6nSdRx5YWv6xTN5V-148">
          <mxGeometry x="105" y="19.895652173912367" width="72" height="21.885217391304348" as="geometry" />
        </mxCell>
        <mxCell id="e7Vy6nSdRx5YWv6xTN5V-151" value="&amp;nbsp; &amp;nbsp; &amp;nbsp; &amp;nbsp; &amp;nbsp; &amp;nbsp; &amp;nbsp; " style="strokeWidth=2;html=1;shape=mxgraph.flowchart.start_2;whiteSpace=wrap;fillColor=#ff5f56;strokeColor=none;rounded=1;" vertex="1" parent="e7Vy6nSdRx5YWv6xTN5V-150">
          <mxGeometry x="2" y="1.989565217391304" width="16" height="16" as="geometry" />
        </mxCell>
        <mxCell id="e7Vy6nSdRx5YWv6xTN5V-152" value="&amp;nbsp; &amp;nbsp; &amp;nbsp; &amp;nbsp; &amp;nbsp; &amp;nbsp; &amp;nbsp; " style="strokeWidth=2;html=1;shape=mxgraph.flowchart.start_2;whiteSpace=wrap;fillColor=#ffbd2e;strokeColor=none;rounded=1;" vertex="1" parent="e7Vy6nSdRx5YWv6xTN5V-150">
          <mxGeometry x="27" y="1.989565217391304" width="16" height="16" as="geometry" />
        </mxCell>
        <mxCell id="e7Vy6nSdRx5YWv6xTN5V-153" value="&amp;nbsp; &amp;nbsp; &amp;nbsp; &amp;nbsp; &amp;nbsp; &amp;nbsp; &amp;nbsp; " style="strokeWidth=2;html=1;shape=mxgraph.flowchart.start_2;whiteSpace=wrap;fillColor=#1fa831;strokeColor=none;rounded=1;" vertex="1" parent="e7Vy6nSdRx5YWv6xTN5V-150">
          <mxGeometry x="52" y="1.989565217391304" width="16" height="16" as="geometry" />
        </mxCell>
        <mxCell id="e7Vy6nSdRx5YWv6xTN5V-154" value="" style="group;flipH=1;" vertex="1" connectable="0" parent="1">
          <mxGeometry x="470" y="3160" width="330" height="250" as="geometry" />
        </mxCell>
        <mxCell id="e7Vy6nSdRx5YWv6xTN5V-155" value="&lt;pre style=&quot;color: rgb(255, 255, 255); white-space: pre; font-size: 15px;&quot;&gt;&lt;pre style=&quot;font-size: 15px;&quot;&gt;&lt;pre style=&quot;font-size: 15px;&quot;&gt;&lt;pre style=&quot;font-size: 17px;&quot;&gt;&lt;pre&gt;&lt;pre&gt;&lt;pre&gt;root:x:0:0:root:/root:&lt;br&gt;/bin/bash&lt;br&gt;daemon:x:1:1:daemon:/usr/sbin:&lt;br&gt;/usr/sbin/nologin&lt;br&gt;bin:x:2:2:bin:/bin:&lt;br&gt;/usr/sbin/nologin&lt;br&gt;sys:x:3:3:sys:/dev:&lt;br&gt;/usr/sbin/nologin&lt;/pre&gt;&lt;/pre&gt;&lt;/pre&gt;&lt;/pre&gt;&lt;/pre&gt;&lt;/pre&gt;&lt;/pre&gt;" style="rounded=1;html=1;arcSize=5;strokeWidth=2;fillColor=#404552;strokeColor=none;align=left;verticalAlign=top;spacing=15;spacingTop=31;fontSize=15;fontFamily=Mina;fontStyle=1;labelBackgroundColor=none;whiteSpace=wrap;" vertex="1" parent="e7Vy6nSdRx5YWv6xTN5V-154">
          <mxGeometry width="330" height="250" as="geometry" />
        </mxCell>
        <mxCell id="e7Vy6nSdRx5YWv6xTN5V-156" value="" style="group" vertex="1" connectable="0" parent="e7Vy6nSdRx5YWv6xTN5V-154">
          <mxGeometry x="245" y="20.80000000000001" width="72" height="22.88" as="geometry" />
        </mxCell>
        <mxCell id="e7Vy6nSdRx5YWv6xTN5V-157" value="&amp;nbsp; &amp;nbsp; &amp;nbsp; &amp;nbsp; &amp;nbsp; &amp;nbsp; &amp;nbsp; " style="strokeWidth=2;html=1;shape=mxgraph.flowchart.start_2;whiteSpace=wrap;fillColor=#ff5f56;strokeColor=none;" vertex="1" parent="e7Vy6nSdRx5YWv6xTN5V-156">
          <mxGeometry x="2" y="2.0799999999999996" width="16" height="16.639999999999997" as="geometry" />
        </mxCell>
        <mxCell id="e7Vy6nSdRx5YWv6xTN5V-158" value="&amp;nbsp; &amp;nbsp; &amp;nbsp; &amp;nbsp; &amp;nbsp; &amp;nbsp; &amp;nbsp; " style="strokeWidth=2;html=1;shape=mxgraph.flowchart.start_2;whiteSpace=wrap;fillColor=#ffbd2e;strokeColor=none;" vertex="1" parent="e7Vy6nSdRx5YWv6xTN5V-156">
          <mxGeometry x="27" y="2.0799999999999996" width="16" height="16.639999999999997" as="geometry" />
        </mxCell>
        <mxCell id="e7Vy6nSdRx5YWv6xTN5V-159" value="&amp;nbsp; &amp;nbsp; &amp;nbsp; &amp;nbsp; &amp;nbsp; &amp;nbsp; &amp;nbsp; " style="strokeWidth=2;html=1;shape=mxgraph.flowchart.start_2;whiteSpace=wrap;fillColor=#1fa831;strokeColor=none;" vertex="1" parent="e7Vy6nSdRx5YWv6xTN5V-156">
          <mxGeometry x="52" y="2.0799999999999996" width="16" height="16.639999999999997" as="geometry" />
        </mxCell>
        <mxCell id="e7Vy6nSdRx5YWv6xTN5V-161" style="edgeStyle=elbowEdgeStyle;rounded=1;orthogonalLoop=1;jettySize=auto;html=1;strokeWidth=2;dashed=1;startArrow=none;startFill=0;endArrow=none;endFill=0;jumpSize=8;jumpStyle=line;shadow=0;flowAnimation=0;strokeColor=default;" edge="1" parent="1">
          <mxGeometry relative="1" as="geometry">
            <mxPoint x="433" y="3481.5999755859375" as="targetPoint" />
            <mxPoint x="430" y="2360" as="sourcePoint" />
          </mxGeometry>
        </mxCell>
        <mxCell id="e7Vy6nSdRx5YWv6xTN5V-162" value="Display the last 7 lines of /etc/passwd" style="rounded=1;whiteSpace=wrap;html=1;fontSize=18;fillColor=#ffcccc;strokeColor=#000000;strokeWidth=2;fontFamily=Mina;arcSize=0;hachureGap=4;align=left;spacingRight=5;fontStyle=1;spacingLeft=23;" vertex="1" parent="1">
          <mxGeometry x="50" y="3540" width="360" height="40" as="geometry" />
        </mxCell>
        <mxCell id="e7Vy6nSdRx5YWv6xTN5V-163" value="14" style="ellipse;whiteSpace=wrap;html=1;aspect=fixed;strokeWidth=2;fillColor=#e51400;strokeColor=#000000;fontFamily=Mina;fontStyle=1;fontSize=20;spacingTop=3;fontColor=#ffffff;" vertex="1" parent="1">
          <mxGeometry x="30" y="3540" width="40" height="40" as="geometry" />
        </mxCell>
        <mxCell id="e7Vy6nSdRx5YWv6xTN5V-164" value="" style="group;flipH=0;" vertex="1" connectable="0" parent="1">
          <mxGeometry x="80" y="3610" width="220" height="100" as="geometry" />
        </mxCell>
        <mxCell id="e7Vy6nSdRx5YWv6xTN5V-165" value="&lt;div style=&quot;&quot;&gt;&lt;div style=&quot;line-height: 14px;&quot;&gt;&lt;div style=&quot;line-height: 19px;&quot;&gt;&lt;div style=&quot;line-height: 19px;&quot;&gt;&lt;div style=&quot;color: rgb(255, 255, 255); font-family: Consolas, &amp;quot;Courier New&amp;quot;, monospace; line-height: 19px; white-space: pre;&quot;&gt;&lt;div style=&quot;line-height: 19px;&quot;&gt;&lt;div style=&quot;color: rgb(56, 58, 66); line-height: 19px;&quot;&gt;&lt;div style=&quot;line-height: 19px;&quot;&gt;&lt;div style=&quot;line-height: 19px;&quot;&gt;&lt;div style=&quot;line-height: 19px;&quot;&gt;&lt;div style=&quot;line-height: 19px;&quot;&gt;&lt;span style=&quot;color: rgb(64, 120, 242);&quot;&gt;cp&lt;/span&gt; &lt;span style=&quot;color: rgb(80, 161, 79);&quot;&gt;/etc/passwd&lt;/span&gt; &lt;span style=&quot;color: rgb(80, 161, 79);&quot;&gt;~/mypasswd&lt;/span&gt; &lt;br&gt;&amp;amp;&amp;amp; &lt;span style=&quot;color: rgb(64, 120, 242);&quot;&gt;cat&lt;/span&gt; &lt;span style=&quot;color: rgb(80, 161, 79);&quot;&gt;mypasswd&lt;/span&gt;&lt;br&gt;&lt;/div&gt;&lt;/div&gt;&lt;/div&gt;&lt;/div&gt;&lt;/div&gt;&lt;/div&gt;&lt;/div&gt;&lt;/div&gt;&lt;/div&gt;&lt;/div&gt;&lt;/div&gt;" style="rounded=1;whiteSpace=wrap;html=1;arcSize=9;strokeWidth=2;fillColor=#eeeeee;strokeColor=#000000;align=left;verticalAlign=top;spacing=15;spacingTop=31;fontSize=14;fontFamily=Mina;fontStyle=1;labelBackgroundColor=none;" vertex="1" parent="e7Vy6nSdRx5YWv6xTN5V-164">
          <mxGeometry width="220" height="100" as="geometry" />
        </mxCell>
        <mxCell id="e7Vy6nSdRx5YWv6xTN5V-166" value="" style="group;rounded=1;" vertex="1" connectable="0" parent="e7Vy6nSdRx5YWv6xTN5V-164">
          <mxGeometry x="13" y="19.895652173912367" width="72" height="21.885217391304348" as="geometry" />
        </mxCell>
        <mxCell id="e7Vy6nSdRx5YWv6xTN5V-167" value="&amp;nbsp; &amp;nbsp; &amp;nbsp; &amp;nbsp; &amp;nbsp; &amp;nbsp; &amp;nbsp; " style="strokeWidth=2;html=1;shape=mxgraph.flowchart.start_2;whiteSpace=wrap;fillColor=#ff5f56;strokeColor=none;rounded=1;" vertex="1" parent="e7Vy6nSdRx5YWv6xTN5V-166">
          <mxGeometry x="2" y="1.989565217391304" width="16" height="16" as="geometry" />
        </mxCell>
        <mxCell id="e7Vy6nSdRx5YWv6xTN5V-168" value="&amp;nbsp; &amp;nbsp; &amp;nbsp; &amp;nbsp; &amp;nbsp; &amp;nbsp; &amp;nbsp; " style="strokeWidth=2;html=1;shape=mxgraph.flowchart.start_2;whiteSpace=wrap;fillColor=#ffbd2e;strokeColor=none;rounded=1;" vertex="1" parent="e7Vy6nSdRx5YWv6xTN5V-166">
          <mxGeometry x="27" y="1.989565217391304" width="16" height="16" as="geometry" />
        </mxCell>
        <mxCell id="e7Vy6nSdRx5YWv6xTN5V-169" value="&amp;nbsp; &amp;nbsp; &amp;nbsp; &amp;nbsp; &amp;nbsp; &amp;nbsp; &amp;nbsp; " style="strokeWidth=2;html=1;shape=mxgraph.flowchart.start_2;whiteSpace=wrap;fillColor=#1fa831;strokeColor=none;rounded=1;" vertex="1" parent="e7Vy6nSdRx5YWv6xTN5V-166">
          <mxGeometry x="52" y="1.989565217391304" width="16" height="16" as="geometry" />
        </mxCell>
        <mxCell id="e7Vy6nSdRx5YWv6xTN5V-170" value="" style="group;flipH=0;" vertex="1" connectable="0" parent="1">
          <mxGeometry x="43" y="3740" width="350" height="410" as="geometry" />
        </mxCell>
        <mxCell id="e7Vy6nSdRx5YWv6xTN5V-171" value="&lt;pre style=&quot;&quot;&gt;&lt;pre style=&quot;&quot;&gt;&lt;pre style=&quot;&quot;&gt;&lt;pre style=&quot;&quot;&gt;&lt;pre style=&quot;&quot;&gt;&lt;pre style=&quot;&quot;&gt;&lt;pre style=&quot;&quot;&gt;&lt;font color=&quot;#ffffff&quot;&gt;&lt;span style=&quot;font-size: 17px;&quot;&gt;ntpsec:x:122:132::/nonexistent:&lt;br&gt;/usr/sbin/nologin&lt;br&gt;miredo-server:x:123:65534::&lt;br&gt;/var/run/miredo-server:/usr/&lt;br&gt;sbin/nologin&lt;br&gt;iodine:x:124:65534::/run/iodine:&lt;br&gt;/usr/sbin/nologin&lt;br&gt;miredo:x:125:65534::/var/run/&lt;br&gt;miredo:/usr/sbin/nologin&lt;br&gt;postgres:x:126:133:PostgreSQL &lt;br/&gt;administrator,,,:/var/lib/&lt;br/&gt;postgresql:/bin/bash&lt;br&gt;inetsim:x:127:134::/var/lib/&lt;br/&gt;inetsim:/usr/sbin/nologin&lt;br&gt;beef-xss:x:128:135::/var/lib/&lt;br/&gt;beef-xss:/usr/sbin/nologin&lt;/span&gt;&lt;/font&gt;&lt;span style=&quot;color: rgb(255, 255, 255); font-size: 17px; white-space: pre;&quot;&gt;&lt;br&gt;&lt;/span&gt;&lt;/pre&gt;&lt;div style=&quot;font-size: 17px; white-space: pre;&quot;&gt;&lt;br&gt;&lt;/div&gt;&lt;/pre&gt;&lt;/pre&gt;&lt;/pre&gt;&lt;/pre&gt;&lt;/pre&gt;&lt;/pre&gt;" style="rounded=1;whiteSpace=wrap;html=1;arcSize=5;strokeWidth=2;fillColor=#404552;strokeColor=none;align=left;verticalAlign=top;spacing=15;spacingTop=31;fontSize=15;fontFamily=Mina;fontStyle=1;labelBackgroundColor=none;" vertex="1" parent="e7Vy6nSdRx5YWv6xTN5V-170">
          <mxGeometry width="350" height="410" as="geometry" />
        </mxCell>
        <mxCell id="e7Vy6nSdRx5YWv6xTN5V-172" value="" style="group" vertex="1" connectable="0" parent="e7Vy6nSdRx5YWv6xTN5V-170">
          <mxGeometry x="13" y="20.80000000000001" width="72" height="22.88" as="geometry" />
        </mxCell>
        <mxCell id="e7Vy6nSdRx5YWv6xTN5V-173" value="&amp;nbsp; &amp;nbsp; &amp;nbsp; &amp;nbsp; &amp;nbsp; &amp;nbsp; &amp;nbsp; " style="strokeWidth=2;html=1;shape=mxgraph.flowchart.start_2;whiteSpace=wrap;fillColor=#ff5f56;strokeColor=none;" vertex="1" parent="e7Vy6nSdRx5YWv6xTN5V-172">
          <mxGeometry x="2" y="2.0799999999999996" width="16" height="16.639999999999997" as="geometry" />
        </mxCell>
        <mxCell id="e7Vy6nSdRx5YWv6xTN5V-174" value="&amp;nbsp; &amp;nbsp; &amp;nbsp; &amp;nbsp; &amp;nbsp; &amp;nbsp; &amp;nbsp; " style="strokeWidth=2;html=1;shape=mxgraph.flowchart.start_2;whiteSpace=wrap;fillColor=#ffbd2e;strokeColor=none;" vertex="1" parent="e7Vy6nSdRx5YWv6xTN5V-172">
          <mxGeometry x="27" y="2.0799999999999996" width="16" height="16.639999999999997" as="geometry" />
        </mxCell>
        <mxCell id="e7Vy6nSdRx5YWv6xTN5V-175" value="&amp;nbsp; &amp;nbsp; &amp;nbsp; &amp;nbsp; &amp;nbsp; &amp;nbsp; &amp;nbsp; " style="strokeWidth=2;html=1;shape=mxgraph.flowchart.start_2;whiteSpace=wrap;fillColor=#1fa831;strokeColor=none;" vertex="1" parent="e7Vy6nSdRx5YWv6xTN5V-172">
          <mxGeometry x="52" y="2.0799999999999996" width="16" height="16.639999999999997" as="geometry" />
        </mxCell>
        <mxCell id="e7Vy6nSdRx5YWv6xTN5V-176" value="" style="group;flipH=1;" vertex="1" connectable="0" parent="1">
          <mxGeometry x="480" y="3530" width="320" height="50" as="geometry" />
        </mxCell>
        <mxCell id="e7Vy6nSdRx5YWv6xTN5V-177" value="Create the directories and files in partition D" style="rounded=1;whiteSpace=wrap;html=1;fontSize=18;fillColor=#ffcccc;strokeColor=#000000;strokeWidth=2;fontFamily=Mina;arcSize=0;hachureGap=4;align=left;spacingRight=5;fontStyle=1;spacingLeft=5;" vertex="1" parent="e7Vy6nSdRx5YWv6xTN5V-176">
          <mxGeometry x="40" width="260" height="50" as="geometry" />
        </mxCell>
        <mxCell id="e7Vy6nSdRx5YWv6xTN5V-178" value="a" style="ellipse;whiteSpace=wrap;html=1;aspect=fixed;strokeWidth=2;fillColor=#e51400;strokeColor=#000000;fontFamily=Mina;fontStyle=1;fontSize=20;spacingTop=3;fontColor=#ffffff;" vertex="1" parent="e7Vy6nSdRx5YWv6xTN5V-176">
          <mxGeometry x="270" width="50" height="50" as="geometry" />
        </mxCell>
        <mxCell id="e7Vy6nSdRx5YWv6xTN5V-179" value="" style="group;flipH=1;" vertex="1" connectable="0" parent="1">
          <mxGeometry x="470" y="3610" width="340" height="140" as="geometry" />
        </mxCell>
        <mxCell id="e7Vy6nSdRx5YWv6xTN5V-180" value="&lt;div style=&quot;&quot;&gt;&lt;div style=&quot;line-height: 14px;&quot;&gt;&lt;div style=&quot;line-height: 19px;&quot;&gt;&lt;div style=&quot;line-height: 19px;&quot;&gt;&lt;div style=&quot;font-family: Consolas, &amp;quot;Courier New&amp;quot;, monospace; line-height: 19px; white-space: pre;&quot;&gt;&lt;div style=&quot;line-height: 19px;&quot;&gt;&lt;div style=&quot;line-height: 19px;&quot;&gt;&lt;div style=&quot;line-height: 19px;&quot;&gt;&lt;div style=&quot;line-height: 19px;&quot;&gt;&lt;div style=&quot;line-height: 19px;&quot;&gt;&lt;div style=&quot;line-height: 19px;&quot;&gt;&lt;div style=&quot;color: rgb(56, 58, 66); line-height: 19px;&quot;&gt;&lt;div style=&quot;line-height: 19px;&quot;&gt;&lt;div style=&quot;line-height: 19px;&quot;&gt;&lt;div style=&quot;line-height: 19px;&quot;&gt;&lt;div style=&quot;line-height: 19px;&quot;&gt;D: &amp;amp;&amp;amp; &lt;span style=&quot;color: #a626a4;&quot;&gt;mkdir&lt;/span&gt; Modern &amp;amp;&amp;amp; &lt;span style=&quot;color: #a626a4;&quot;&gt;cd&lt;/span&gt; Modern &amp;amp;&amp;amp; &lt;span style=&quot;color: #a626a4;&quot;&gt;mkdir&lt;/span&gt; &lt;br&gt;CS IT &amp;amp;&amp;amp; &lt;span style=&quot;color: #a626a4;&quot;&gt;cd&lt;/span&gt; CS &amp;amp;&amp;amp; &lt;span style=&quot;color: #a626a4;&quot;&gt;echo&lt;/span&gt;. &amp;gt; F1 &amp;amp;&amp;amp; &lt;span style=&quot;color: #a626a4;&quot;&gt;echo&lt;/span&gt;. &amp;gt; &lt;br&gt;F2 &amp;amp;&amp;amp; &lt;span style=&quot;color: #a626a4;&quot;&gt;cd&lt;/span&gt; ../IT &amp;amp;&amp;amp; &lt;span style=&quot;color: #a626a4;&quot;&gt;mkdir&lt;/span&gt; CCNA &amp;amp;&amp;amp; &lt;span style=&quot;color: #a626a4;&quot;&gt;cd&lt;/span&gt; .. &amp;amp;&amp;amp; &lt;br&gt;&lt;span style=&quot;color: #a626a4;&quot;&gt;tree&lt;/span&gt; /f&lt;/div&gt;&lt;/div&gt;&lt;/div&gt;&lt;/div&gt;&lt;/div&gt;&lt;/div&gt;&lt;/div&gt;&lt;/div&gt;&lt;/div&gt;&lt;/div&gt;&lt;/div&gt;&lt;/div&gt;&lt;/div&gt;&lt;/div&gt;&lt;/div&gt;&lt;/div&gt;" style="rounded=1;whiteSpace=wrap;html=1;arcSize=6;strokeWidth=2;fillColor=#eeeeee;strokeColor=#000000;align=left;verticalAlign=top;spacing=15;spacingTop=31;fontSize=14;fontFamily=Mina;fontStyle=1;labelBackgroundColor=none;" vertex="1" parent="e7Vy6nSdRx5YWv6xTN5V-179">
          <mxGeometry width="340" height="140" as="geometry" />
        </mxCell>
        <mxCell id="e7Vy6nSdRx5YWv6xTN5V-181" value="" style="group;rounded=1;" vertex="1" connectable="0" parent="e7Vy6nSdRx5YWv6xTN5V-179">
          <mxGeometry x="255" y="19.895652173912367" width="72" height="21.885217391304348" as="geometry" />
        </mxCell>
        <mxCell id="e7Vy6nSdRx5YWv6xTN5V-182" value="&amp;nbsp; &amp;nbsp; &amp;nbsp; &amp;nbsp; &amp;nbsp; &amp;nbsp; &amp;nbsp; " style="strokeWidth=2;html=1;shape=mxgraph.flowchart.start_2;whiteSpace=wrap;fillColor=#ff5f56;strokeColor=none;rounded=1;" vertex="1" parent="e7Vy6nSdRx5YWv6xTN5V-181">
          <mxGeometry x="2" y="1.989565217391304" width="16" height="16" as="geometry" />
        </mxCell>
        <mxCell id="e7Vy6nSdRx5YWv6xTN5V-183" value="&amp;nbsp; &amp;nbsp; &amp;nbsp; &amp;nbsp; &amp;nbsp; &amp;nbsp; &amp;nbsp; " style="strokeWidth=2;html=1;shape=mxgraph.flowchart.start_2;whiteSpace=wrap;fillColor=#ffbd2e;strokeColor=none;rounded=1;" vertex="1" parent="e7Vy6nSdRx5YWv6xTN5V-181">
          <mxGeometry x="27" y="1.989565217391304" width="16" height="16" as="geometry" />
        </mxCell>
        <mxCell id="e7Vy6nSdRx5YWv6xTN5V-184" value="&amp;nbsp; &amp;nbsp; &amp;nbsp; &amp;nbsp; &amp;nbsp; &amp;nbsp; &amp;nbsp; " style="strokeWidth=2;html=1;shape=mxgraph.flowchart.start_2;whiteSpace=wrap;fillColor=#1fa831;strokeColor=none;rounded=1;" vertex="1" parent="e7Vy6nSdRx5YWv6xTN5V-181">
          <mxGeometry x="52" y="1.989565217391304" width="16" height="16" as="geometry" />
        </mxCell>
        <mxCell id="e7Vy6nSdRx5YWv6xTN5V-185" value="" style="group;flipH=1;" vertex="1" connectable="0" parent="1">
          <mxGeometry x="450" y="3770" width="360" height="270" as="geometry" />
        </mxCell>
        <mxCell id="e7Vy6nSdRx5YWv6xTN5V-186" value="&lt;pre style=&quot;&quot;&gt;&lt;pre style=&quot;&quot;&gt;&lt;pre style=&quot;&quot;&gt;&lt;pre style=&quot;&quot;&gt;&lt;pre style=&quot;&quot;&gt;&lt;pre style=&quot;&quot;&gt;&lt;pre style=&quot;&quot;&gt;&lt;font color=&quot;#ffffff&quot;&gt;&lt;span style=&quot;font-size: 17px;&quot;&gt;Folder PATH listing&lt;br/&gt;Volume serial number is 7685-F490&lt;br/&gt;D:.&lt;br/&gt;├───CS&lt;br/&gt;│       F1&lt;br/&gt;│       F2&lt;br/&gt;│&lt;br/&gt;└───IT&lt;br/&gt;    └───CCNA&lt;br&gt;&lt;/span&gt;&lt;/font&gt;&lt;/pre&gt;&lt;/pre&gt;&lt;/pre&gt;&lt;/pre&gt;&lt;/pre&gt;&lt;/pre&gt;&lt;/pre&gt;" style="rounded=1;html=1;arcSize=5;strokeWidth=2;fillColor=#404552;strokeColor=none;align=left;verticalAlign=top;spacing=15;spacingTop=31;fontSize=15;fontFamily=Mina;fontStyle=1;labelBackgroundColor=none;whiteSpace=wrap;" vertex="1" parent="e7Vy6nSdRx5YWv6xTN5V-185">
          <mxGeometry width="360" height="270" as="geometry" />
        </mxCell>
        <mxCell id="e7Vy6nSdRx5YWv6xTN5V-187" value="" style="group" vertex="1" connectable="0" parent="e7Vy6nSdRx5YWv6xTN5V-185">
          <mxGeometry x="275" y="20.80000000000001" width="72" height="22.88" as="geometry" />
        </mxCell>
        <mxCell id="e7Vy6nSdRx5YWv6xTN5V-188" value="&amp;nbsp; &amp;nbsp; &amp;nbsp; &amp;nbsp; &amp;nbsp; &amp;nbsp; &amp;nbsp; " style="strokeWidth=2;html=1;shape=mxgraph.flowchart.start_2;whiteSpace=wrap;fillColor=#ff5f56;strokeColor=none;" vertex="1" parent="e7Vy6nSdRx5YWv6xTN5V-187">
          <mxGeometry x="2" y="2.0799999999999996" width="16" height="16.639999999999997" as="geometry" />
        </mxCell>
        <mxCell id="e7Vy6nSdRx5YWv6xTN5V-189" value="&amp;nbsp; &amp;nbsp; &amp;nbsp; &amp;nbsp; &amp;nbsp; &amp;nbsp; &amp;nbsp; " style="strokeWidth=2;html=1;shape=mxgraph.flowchart.start_2;whiteSpace=wrap;fillColor=#ffbd2e;strokeColor=none;" vertex="1" parent="e7Vy6nSdRx5YWv6xTN5V-187">
          <mxGeometry x="27" y="2.0799999999999996" width="16" height="16.639999999999997" as="geometry" />
        </mxCell>
        <mxCell id="e7Vy6nSdRx5YWv6xTN5V-190" value="&amp;nbsp; &amp;nbsp; &amp;nbsp; &amp;nbsp; &amp;nbsp; &amp;nbsp; &amp;nbsp; " style="strokeWidth=2;html=1;shape=mxgraph.flowchart.start_2;whiteSpace=wrap;fillColor=#1fa831;strokeColor=none;" vertex="1" parent="e7Vy6nSdRx5YWv6xTN5V-187">
          <mxGeometry x="52" y="2.0799999999999996" width="16" height="16.639999999999997" as="geometry" />
        </mxCell>
        <mxCell id="e7Vy6nSdRx5YWv6xTN5V-191" style="edgeStyle=elbowEdgeStyle;rounded=1;orthogonalLoop=1;jettySize=auto;html=1;strokeWidth=2;dashed=1;startArrow=none;startFill=0;endArrow=none;endFill=0;jumpSize=8;jumpStyle=line;shadow=0;flowAnimation=0;strokeColor=default;" edge="1" parent="1">
          <mxGeometry relative="1" as="geometry">
            <mxPoint x="423" y="4651.5999755859375" as="targetPoint" />
            <mxPoint x="420" y="3530" as="sourcePoint" />
          </mxGeometry>
        </mxCell>
        <mxCell id="e7Vy6nSdRx5YWv6xTN5V-192" value="Copy the F1 file to IT Folder" style="rounded=1;whiteSpace=wrap;html=1;fontSize=18;fillColor=#ffcccc;strokeColor=#000000;strokeWidth=2;fontFamily=Mina;arcSize=0;hachureGap=4;align=left;spacingRight=5;fontStyle=1;spacingLeft=23;" vertex="1" parent="1">
          <mxGeometry x="40" y="4180" width="260" height="40" as="geometry" />
        </mxCell>
        <mxCell id="e7Vy6nSdRx5YWv6xTN5V-193" value="b" style="ellipse;whiteSpace=wrap;html=1;aspect=fixed;strokeWidth=2;fillColor=#e51400;strokeColor=#000000;fontFamily=Mina;fontStyle=1;fontSize=20;spacingTop=3;fontColor=#ffffff;" vertex="1" parent="1">
          <mxGeometry x="20" y="4180" width="40" height="40" as="geometry" />
        </mxCell>
        <mxCell id="e7Vy6nSdRx5YWv6xTN5V-194" value="" style="group;flipH=0;" vertex="1" connectable="0" parent="1">
          <mxGeometry x="40" y="4250" width="330" height="100" as="geometry" />
        </mxCell>
        <mxCell id="e7Vy6nSdRx5YWv6xTN5V-195" value="&lt;div style=&quot;&quot;&gt;&lt;div style=&quot;line-height: 14px;&quot;&gt;&lt;div style=&quot;line-height: 19px;&quot;&gt;&lt;div style=&quot;line-height: 19px;&quot;&gt;&lt;div style=&quot;color: rgb(255, 255, 255); font-family: Consolas, &amp;quot;Courier New&amp;quot;, monospace; line-height: 19px; white-space: pre;&quot;&gt;&lt;div style=&quot;line-height: 19px;&quot;&gt;&lt;div style=&quot;color: rgb(56, 58, 66); line-height: 19px;&quot;&gt;&lt;div style=&quot;line-height: 19px;&quot;&gt;&lt;div style=&quot;line-height: 19px;&quot;&gt;&lt;div style=&quot;line-height: 19px;&quot;&gt;&lt;div style=&quot;line-height: 19px;&quot;&gt;&lt;div style=&quot;line-height: 19px;&quot;&gt;&lt;span style=&quot;color: #a626a4;&quot;&gt;copy&lt;/span&gt; D:\Modern\CS\F1 D:\Modern\IT\ &lt;br&gt;&amp;amp;&amp;amp; &lt;span style=&quot;color: #a626a4;&quot;&gt;dir&lt;/span&gt; D:\Modern\IT&lt;/div&gt;&lt;/div&gt;&lt;/div&gt;&lt;/div&gt;&lt;/div&gt;&lt;/div&gt;&lt;/div&gt;&lt;/div&gt;&lt;/div&gt;&lt;/div&gt;&lt;/div&gt;&lt;/div&gt;" style="rounded=1;whiteSpace=wrap;html=1;arcSize=9;strokeWidth=2;fillColor=#eeeeee;strokeColor=#000000;align=left;verticalAlign=top;spacing=15;spacingTop=31;fontSize=14;fontFamily=Mina;fontStyle=1;labelBackgroundColor=none;" vertex="1" parent="e7Vy6nSdRx5YWv6xTN5V-194">
          <mxGeometry width="330" height="100" as="geometry" />
        </mxCell>
        <mxCell id="e7Vy6nSdRx5YWv6xTN5V-196" value="" style="group;rounded=1;" vertex="1" connectable="0" parent="e7Vy6nSdRx5YWv6xTN5V-194">
          <mxGeometry x="13" y="19.895652173912367" width="72" height="21.885217391304348" as="geometry" />
        </mxCell>
        <mxCell id="e7Vy6nSdRx5YWv6xTN5V-197" value="&amp;nbsp; &amp;nbsp; &amp;nbsp; &amp;nbsp; &amp;nbsp; &amp;nbsp; &amp;nbsp; " style="strokeWidth=2;html=1;shape=mxgraph.flowchart.start_2;whiteSpace=wrap;fillColor=#ff5f56;strokeColor=none;rounded=1;" vertex="1" parent="e7Vy6nSdRx5YWv6xTN5V-196">
          <mxGeometry x="2" y="1.989565217391304" width="16" height="16" as="geometry" />
        </mxCell>
        <mxCell id="e7Vy6nSdRx5YWv6xTN5V-198" value="&amp;nbsp; &amp;nbsp; &amp;nbsp; &amp;nbsp; &amp;nbsp; &amp;nbsp; &amp;nbsp; " style="strokeWidth=2;html=1;shape=mxgraph.flowchart.start_2;whiteSpace=wrap;fillColor=#ffbd2e;strokeColor=none;rounded=1;" vertex="1" parent="e7Vy6nSdRx5YWv6xTN5V-196">
          <mxGeometry x="27" y="1.989565217391304" width="16" height="16" as="geometry" />
        </mxCell>
        <mxCell id="e7Vy6nSdRx5YWv6xTN5V-199" value="&amp;nbsp; &amp;nbsp; &amp;nbsp; &amp;nbsp; &amp;nbsp; &amp;nbsp; &amp;nbsp; " style="strokeWidth=2;html=1;shape=mxgraph.flowchart.start_2;whiteSpace=wrap;fillColor=#1fa831;strokeColor=none;rounded=1;" vertex="1" parent="e7Vy6nSdRx5YWv6xTN5V-196">
          <mxGeometry x="52" y="1.989565217391304" width="16" height="16" as="geometry" />
        </mxCell>
        <mxCell id="e7Vy6nSdRx5YWv6xTN5V-200" value="" style="group;flipH=0;" vertex="1" connectable="0" parent="1">
          <mxGeometry x="10" y="4380" width="390" height="210" as="geometry" />
        </mxCell>
        <mxCell id="e7Vy6nSdRx5YWv6xTN5V-201" value="&lt;pre style=&quot;&quot;&gt;&lt;pre style=&quot;&quot;&gt;&lt;pre style=&quot;&quot;&gt;&lt;pre style=&quot;&quot;&gt;&lt;pre style=&quot;&quot;&gt;&lt;pre style=&quot;&quot;&gt;&lt;pre style=&quot;&quot;&gt;&lt;font color=&quot;#ffffff&quot;&gt;&lt;span style=&quot;font-size: 17px;&quot;&gt; Directory of D:\Modern\IT&lt;br&gt;&lt;br&gt;11/29/2024  05:06 PM    &amp;lt;DIR&amp;gt;  .&lt;br&gt;11/29/2024  05:06 PM    &amp;lt;DIR&amp;gt;  ..&lt;br&gt;11/29/2024  05:04 PM    &amp;lt;DIR&amp;gt;  CCNA&lt;br&gt;11/29/2024  05:04 PM         4 F1&lt;/span&gt;&lt;/font&gt;&lt;br&gt;&lt;/pre&gt;&lt;/pre&gt;&lt;/pre&gt;&lt;/pre&gt;&lt;/pre&gt;&lt;/pre&gt;&lt;/pre&gt;" style="rounded=1;whiteSpace=wrap;html=1;arcSize=5;strokeWidth=2;fillColor=#404552;strokeColor=none;align=left;verticalAlign=top;spacing=15;spacingTop=31;fontSize=15;fontFamily=Mina;fontStyle=1;labelBackgroundColor=none;" vertex="1" parent="e7Vy6nSdRx5YWv6xTN5V-200">
          <mxGeometry width="390" height="210" as="geometry" />
        </mxCell>
        <mxCell id="e7Vy6nSdRx5YWv6xTN5V-202" value="" style="group" vertex="1" connectable="0" parent="e7Vy6nSdRx5YWv6xTN5V-200">
          <mxGeometry x="13" y="20.80000000000001" width="72" height="22.88" as="geometry" />
        </mxCell>
        <mxCell id="e7Vy6nSdRx5YWv6xTN5V-203" value="&amp;nbsp; &amp;nbsp; &amp;nbsp; &amp;nbsp; &amp;nbsp; &amp;nbsp; &amp;nbsp; " style="strokeWidth=2;html=1;shape=mxgraph.flowchart.start_2;whiteSpace=wrap;fillColor=#ff5f56;strokeColor=none;" vertex="1" parent="e7Vy6nSdRx5YWv6xTN5V-202">
          <mxGeometry x="2" y="2.0799999999999996" width="16" height="16.639999999999997" as="geometry" />
        </mxCell>
        <mxCell id="e7Vy6nSdRx5YWv6xTN5V-204" value="&amp;nbsp; &amp;nbsp; &amp;nbsp; &amp;nbsp; &amp;nbsp; &amp;nbsp; &amp;nbsp; " style="strokeWidth=2;html=1;shape=mxgraph.flowchart.start_2;whiteSpace=wrap;fillColor=#ffbd2e;strokeColor=none;" vertex="1" parent="e7Vy6nSdRx5YWv6xTN5V-202">
          <mxGeometry x="27" y="2.0799999999999996" width="16" height="16.639999999999997" as="geometry" />
        </mxCell>
        <mxCell id="e7Vy6nSdRx5YWv6xTN5V-205" value="&amp;nbsp; &amp;nbsp; &amp;nbsp; &amp;nbsp; &amp;nbsp; &amp;nbsp; &amp;nbsp; " style="strokeWidth=2;html=1;shape=mxgraph.flowchart.start_2;whiteSpace=wrap;fillColor=#1fa831;strokeColor=none;" vertex="1" parent="e7Vy6nSdRx5YWv6xTN5V-202">
          <mxGeometry x="52" y="2.0799999999999996" width="16" height="16.639999999999997" as="geometry" />
        </mxCell>
        <mxCell id="e7Vy6nSdRx5YWv6xTN5V-206" value="" style="group;flipH=1;" vertex="1" connectable="0" parent="1">
          <mxGeometry x="600" y="4060" width="212" height="42" as="geometry" />
        </mxCell>
        <mxCell id="e7Vy6nSdRx5YWv6xTN5V-207" value="Remove CS/F1 file." style="rounded=1;whiteSpace=wrap;html=1;fontSize=18;fillColor=#ffcccc;strokeColor=#000000;strokeWidth=2;fontFamily=Mina;arcSize=0;hachureGap=4;align=left;spacingRight=5;fontStyle=1;spacingLeft=5;" vertex="1" parent="e7Vy6nSdRx5YWv6xTN5V-206">
          <mxGeometry width="190" height="42" as="geometry" />
        </mxCell>
        <mxCell id="e7Vy6nSdRx5YWv6xTN5V-208" value="c" style="ellipse;whiteSpace=wrap;html=1;aspect=fixed;strokeWidth=2;fillColor=#e51400;strokeColor=#000000;fontFamily=Mina;fontStyle=1;fontSize=20;spacingTop=3;fontColor=#ffffff;" vertex="1" parent="e7Vy6nSdRx5YWv6xTN5V-206">
          <mxGeometry x="170" width="42" height="42" as="geometry" />
        </mxCell>
        <mxCell id="e7Vy6nSdRx5YWv6xTN5V-209" value="" style="group;flipH=1;" vertex="1" connectable="0" parent="1">
          <mxGeometry x="470" y="4132" width="340" height="90" as="geometry" />
        </mxCell>
        <mxCell id="e7Vy6nSdRx5YWv6xTN5V-210" value="&lt;div style=&quot;&quot;&gt;&lt;div style=&quot;line-height: 14px;&quot;&gt;&lt;div style=&quot;line-height: 19px;&quot;&gt;&lt;div style=&quot;line-height: 19px;&quot;&gt;&lt;div style=&quot;font-family: Consolas, &amp;quot;Courier New&amp;quot;, monospace; line-height: 19px; white-space: pre;&quot;&gt;&lt;div style=&quot;line-height: 19px;&quot;&gt;&lt;div style=&quot;line-height: 19px;&quot;&gt;&lt;div style=&quot;line-height: 19px;&quot;&gt;&lt;div style=&quot;line-height: 19px;&quot;&gt;&lt;div style=&quot;line-height: 19px;&quot;&gt;&lt;div style=&quot;line-height: 19px;&quot;&gt;&lt;div style=&quot;color: rgb(56, 58, 66); line-height: 19px;&quot;&gt;&lt;div style=&quot;line-height: 19px;&quot;&gt;&lt;div style=&quot;line-height: 19px;&quot;&gt;&lt;div style=&quot;line-height: 19px;&quot;&gt;&lt;div style=&quot;line-height: 19px;&quot;&gt;&lt;div style=&quot;line-height: 19px;&quot;&gt;&lt;span style=&quot;color: #a626a4;&quot;&gt;del&lt;/span&gt; D:\Modern\CS\F2 &amp;amp;&amp;amp; &lt;span style=&quot;color: #a626a4;&quot;&gt;dir&lt;/span&gt; D:\Modern\CS&lt;/div&gt;&lt;/div&gt;&lt;/div&gt;&lt;/div&gt;&lt;/div&gt;&lt;/div&gt;&lt;/div&gt;&lt;/div&gt;&lt;/div&gt;&lt;/div&gt;&lt;/div&gt;&lt;/div&gt;&lt;/div&gt;&lt;/div&gt;&lt;/div&gt;&lt;/div&gt;&lt;/div&gt;" style="rounded=1;whiteSpace=wrap;html=1;arcSize=9;strokeWidth=2;fillColor=#eeeeee;strokeColor=#000000;align=left;verticalAlign=top;spacing=15;spacingTop=31;fontSize=14;fontFamily=Mina;fontStyle=1;labelBackgroundColor=none;" vertex="1" parent="e7Vy6nSdRx5YWv6xTN5V-209">
          <mxGeometry width="340" height="90" as="geometry" />
        </mxCell>
        <mxCell id="e7Vy6nSdRx5YWv6xTN5V-211" value="" style="group;rounded=1;" vertex="1" connectable="0" parent="e7Vy6nSdRx5YWv6xTN5V-209">
          <mxGeometry x="255" y="19.895652173912367" width="72" height="21.885217391304348" as="geometry" />
        </mxCell>
        <mxCell id="e7Vy6nSdRx5YWv6xTN5V-212" value="&amp;nbsp; &amp;nbsp; &amp;nbsp; &amp;nbsp; &amp;nbsp; &amp;nbsp; &amp;nbsp; " style="strokeWidth=2;html=1;shape=mxgraph.flowchart.start_2;whiteSpace=wrap;fillColor=#ff5f56;strokeColor=none;rounded=1;" vertex="1" parent="e7Vy6nSdRx5YWv6xTN5V-211">
          <mxGeometry x="2" y="1.989565217391304" width="16" height="16" as="geometry" />
        </mxCell>
        <mxCell id="e7Vy6nSdRx5YWv6xTN5V-213" value="&amp;nbsp; &amp;nbsp; &amp;nbsp; &amp;nbsp; &amp;nbsp; &amp;nbsp; &amp;nbsp; " style="strokeWidth=2;html=1;shape=mxgraph.flowchart.start_2;whiteSpace=wrap;fillColor=#ffbd2e;strokeColor=none;rounded=1;" vertex="1" parent="e7Vy6nSdRx5YWv6xTN5V-211">
          <mxGeometry x="27" y="1.989565217391304" width="16" height="16" as="geometry" />
        </mxCell>
        <mxCell id="e7Vy6nSdRx5YWv6xTN5V-214" value="&amp;nbsp; &amp;nbsp; &amp;nbsp; &amp;nbsp; &amp;nbsp; &amp;nbsp; &amp;nbsp; " style="strokeWidth=2;html=1;shape=mxgraph.flowchart.start_2;whiteSpace=wrap;fillColor=#1fa831;strokeColor=none;rounded=1;" vertex="1" parent="e7Vy6nSdRx5YWv6xTN5V-211">
          <mxGeometry x="52" y="1.989565217391304" width="16" height="16" as="geometry" />
        </mxCell>
        <mxCell id="e7Vy6nSdRx5YWv6xTN5V-215" value="" style="group;flipH=1;" vertex="1" connectable="0" parent="1">
          <mxGeometry x="440" y="4250" width="370" height="190" as="geometry" />
        </mxCell>
        <mxCell id="e7Vy6nSdRx5YWv6xTN5V-216" value="&lt;pre style=&quot;&quot;&gt;&lt;pre style=&quot;&quot;&gt;&lt;pre style=&quot;&quot;&gt;&lt;pre style=&quot;&quot;&gt;&lt;pre style=&quot;&quot;&gt;&lt;pre style=&quot;&quot;&gt;&lt;pre style=&quot;&quot;&gt;&lt;font color=&quot;#ffffff&quot;&gt;&lt;span style=&quot;font-size: 17px;&quot;&gt; Directory of D:\Modern\CS&lt;br&gt;&lt;br&gt;11/29/2024  05:11 PM    &amp;lt;DIR&amp;gt;  .&lt;br&gt;11/29/2024  05:11 PM    &amp;lt;DIR&amp;gt;  ..&lt;br&gt;11/29/2024  05:04 PM         4 F1&lt;br&gt;&lt;/span&gt;&lt;/font&gt;&lt;/pre&gt;&lt;/pre&gt;&lt;/pre&gt;&lt;/pre&gt;&lt;/pre&gt;&lt;/pre&gt;&lt;/pre&gt;" style="rounded=1;html=1;arcSize=5;strokeWidth=2;fillColor=#404552;strokeColor=none;align=left;verticalAlign=top;spacing=15;spacingTop=31;fontSize=15;fontFamily=Mina;fontStyle=1;labelBackgroundColor=none;whiteSpace=wrap;" vertex="1" parent="e7Vy6nSdRx5YWv6xTN5V-215">
          <mxGeometry width="370" height="190" as="geometry" />
        </mxCell>
        <mxCell id="e7Vy6nSdRx5YWv6xTN5V-217" value="" style="group" vertex="1" connectable="0" parent="e7Vy6nSdRx5YWv6xTN5V-215">
          <mxGeometry x="285" y="20.80000000000001" width="72" height="22.88" as="geometry" />
        </mxCell>
        <mxCell id="e7Vy6nSdRx5YWv6xTN5V-218" value="&amp;nbsp; &amp;nbsp; &amp;nbsp; &amp;nbsp; &amp;nbsp; &amp;nbsp; &amp;nbsp; " style="strokeWidth=2;html=1;shape=mxgraph.flowchart.start_2;whiteSpace=wrap;fillColor=#ff5f56;strokeColor=none;" vertex="1" parent="e7Vy6nSdRx5YWv6xTN5V-217">
          <mxGeometry x="2" y="2.0799999999999996" width="16" height="16.639999999999997" as="geometry" />
        </mxCell>
        <mxCell id="e7Vy6nSdRx5YWv6xTN5V-219" value="&amp;nbsp; &amp;nbsp; &amp;nbsp; &amp;nbsp; &amp;nbsp; &amp;nbsp; &amp;nbsp; " style="strokeWidth=2;html=1;shape=mxgraph.flowchart.start_2;whiteSpace=wrap;fillColor=#ffbd2e;strokeColor=none;" vertex="1" parent="e7Vy6nSdRx5YWv6xTN5V-217">
          <mxGeometry x="27" y="2.0799999999999996" width="16" height="16.639999999999997" as="geometry" />
        </mxCell>
        <mxCell id="e7Vy6nSdRx5YWv6xTN5V-220" value="&amp;nbsp; &amp;nbsp; &amp;nbsp; &amp;nbsp; &amp;nbsp; &amp;nbsp; &amp;nbsp; " style="strokeWidth=2;html=1;shape=mxgraph.flowchart.start_2;whiteSpace=wrap;fillColor=#1fa831;strokeColor=none;" vertex="1" parent="e7Vy6nSdRx5YWv6xTN5V-217">
          <mxGeometry x="52" y="2.0799999999999996" width="16" height="16.639999999999997" as="geometry" />
        </mxCell>
        <mxCell id="e7Vy6nSdRx5YWv6xTN5V-221" value="" style="group;flipH=1;" vertex="1" connectable="0" parent="1">
          <mxGeometry x="600" y="4470" width="212" height="42" as="geometry" />
        </mxCell>
        <mxCell id="e7Vy6nSdRx5YWv6xTN5V-222" value="Remove Modern Folder" style="rounded=1;whiteSpace=wrap;html=1;fontSize=18;fillColor=#ffcccc;strokeColor=#000000;strokeWidth=2;fontFamily=Mina;arcSize=0;hachureGap=4;align=left;spacingRight=5;fontStyle=1;spacingLeft=5;" vertex="1" parent="e7Vy6nSdRx5YWv6xTN5V-221">
          <mxGeometry x="-40" width="230" height="42" as="geometry" />
        </mxCell>
        <mxCell id="e7Vy6nSdRx5YWv6xTN5V-223" value="d" style="ellipse;whiteSpace=wrap;html=1;aspect=fixed;strokeWidth=2;fillColor=#e51400;strokeColor=#000000;fontFamily=Mina;fontStyle=1;fontSize=20;spacingTop=3;fontColor=#ffffff;" vertex="1" parent="e7Vy6nSdRx5YWv6xTN5V-221">
          <mxGeometry x="170" width="42" height="42" as="geometry" />
        </mxCell>
        <mxCell id="e7Vy6nSdRx5YWv6xTN5V-224" value="" style="group;flipH=1;" vertex="1" connectable="0" parent="1">
          <mxGeometry x="550" y="4542" width="260" height="90" as="geometry" />
        </mxCell>
        <mxCell id="e7Vy6nSdRx5YWv6xTN5V-225" value="&lt;div style=&quot;&quot;&gt;&lt;div style=&quot;line-height: 14px;&quot;&gt;&lt;div style=&quot;line-height: 19px;&quot;&gt;&lt;div style=&quot;line-height: 19px;&quot;&gt;&lt;div style=&quot;line-height: 19px;&quot;&gt;&lt;div style=&quot;line-height: 19px;&quot;&gt;&lt;div style=&quot;line-height: 19px;&quot;&gt;&lt;div style=&quot;line-height: 19px;&quot;&gt;&lt;div style=&quot;line-height: 19px;&quot;&gt;&lt;div style=&quot;line-height: 19px;&quot;&gt;&lt;div style=&quot;line-height: 19px;&quot;&gt;&lt;div style=&quot;line-height: 19px;&quot;&gt;&lt;div style=&quot;line-height: 19px;&quot;&gt;&lt;div style=&quot;line-height: 19px;&quot;&gt;&lt;div style=&quot;line-height: 19px;&quot;&gt;&lt;div style=&quot;line-height: 19px;&quot;&gt;&lt;div style=&quot;line-height: 19px;&quot;&gt;&lt;div style=&quot;color: rgb(56, 58, 66); font-family: Consolas, &amp;quot;Courier New&amp;quot;, monospace; line-height: 19px; white-space: pre;&quot;&gt;&lt;span style=&quot;color: #a626a4;&quot;&gt;cd&lt;/span&gt; .. &amp;amp;&amp;amp; &lt;span style=&quot;color: #a626a4;&quot;&gt;rmdir&lt;/span&gt; /s /q D:\Modern&lt;/div&gt;&lt;/div&gt;&lt;/div&gt;&lt;/div&gt;&lt;/div&gt;&lt;/div&gt;&lt;/div&gt;&lt;/div&gt;&lt;/div&gt;&lt;/div&gt;&lt;/div&gt;&lt;/div&gt;&lt;/div&gt;&lt;/div&gt;&lt;/div&gt;&lt;/div&gt;&lt;/div&gt;&lt;/div&gt;" style="rounded=1;whiteSpace=wrap;html=1;arcSize=9;strokeWidth=2;fillColor=#eeeeee;strokeColor=#000000;align=left;verticalAlign=top;spacing=15;spacingTop=31;fontSize=14;fontFamily=Mina;fontStyle=1;labelBackgroundColor=none;" vertex="1" parent="e7Vy6nSdRx5YWv6xTN5V-224">
          <mxGeometry width="260" height="90" as="geometry" />
        </mxCell>
        <mxCell id="e7Vy6nSdRx5YWv6xTN5V-226" value="" style="group;rounded=1;" vertex="1" connectable="0" parent="e7Vy6nSdRx5YWv6xTN5V-224">
          <mxGeometry x="175" y="19.895652173912367" width="72" height="21.885217391304348" as="geometry" />
        </mxCell>
        <mxCell id="e7Vy6nSdRx5YWv6xTN5V-227" value="&amp;nbsp; &amp;nbsp; &amp;nbsp; &amp;nbsp; &amp;nbsp; &amp;nbsp; &amp;nbsp; " style="strokeWidth=2;html=1;shape=mxgraph.flowchart.start_2;whiteSpace=wrap;fillColor=#ff5f56;strokeColor=none;rounded=1;" vertex="1" parent="e7Vy6nSdRx5YWv6xTN5V-226">
          <mxGeometry x="2" y="1.989565217391304" width="16" height="16" as="geometry" />
        </mxCell>
        <mxCell id="e7Vy6nSdRx5YWv6xTN5V-228" value="&amp;nbsp; &amp;nbsp; &amp;nbsp; &amp;nbsp; &amp;nbsp; &amp;nbsp; &amp;nbsp; " style="strokeWidth=2;html=1;shape=mxgraph.flowchart.start_2;whiteSpace=wrap;fillColor=#ffbd2e;strokeColor=none;rounded=1;" vertex="1" parent="e7Vy6nSdRx5YWv6xTN5V-226">
          <mxGeometry x="27" y="1.989565217391304" width="16" height="16" as="geometry" />
        </mxCell>
        <mxCell id="e7Vy6nSdRx5YWv6xTN5V-229" value="&amp;nbsp; &amp;nbsp; &amp;nbsp; &amp;nbsp; &amp;nbsp; &amp;nbsp; &amp;nbsp; " style="strokeWidth=2;html=1;shape=mxgraph.flowchart.start_2;whiteSpace=wrap;fillColor=#1fa831;strokeColor=none;rounded=1;" vertex="1" parent="e7Vy6nSdRx5YWv6xTN5V-226">
          <mxGeometry x="52" y="1.989565217391304" width="16" height="16" as="geometry" />
        </mxCell>
        <mxCell id="e7Vy6nSdRx5YWv6xTN5V-236" value="" style="group;flipH=0;" vertex="1" connectable="0" parent="1">
          <mxGeometry x="134" y="4770" width="560" height="456" as="geometry" />
        </mxCell>
        <mxCell id="e7Vy6nSdRx5YWv6xTN5V-237" value="&lt;div style=&quot;&quot;&gt;&lt;div style=&quot;line-height: 14px;&quot;&gt;&lt;div style=&quot;line-height: 19px;&quot;&gt;&lt;div style=&quot;line-height: 19px;&quot;&gt;&lt;div style=&quot;color: rgb(255, 255, 255); font-family: Consolas, &amp;quot;Courier New&amp;quot;, monospace; line-height: 19px; white-space: pre;&quot;&gt;&lt;div style=&quot;line-height: 19px;&quot;&gt;&lt;div style=&quot;color: rgb(56, 58, 66); line-height: 19px;&quot;&gt;&lt;div style=&quot;line-height: 19px;&quot;&gt;&lt;div style=&quot;line-height: 19px;&quot;&gt;&lt;div style=&quot;line-height: 19px;&quot;&gt;&lt;div style=&quot;line-height: 19px;&quot;&gt;&lt;div style=&quot;line-height: 19px;&quot;&gt;&lt;div style=&quot;line-height: 116%;&quot;&gt;&lt;div style=&quot;line-height: 116%;&quot;&gt;@&lt;span style=&quot;color: #a626a4;&quot;&gt;echo&lt;/span&gt; &lt;span style=&quot;color: #4078f2;&quot;&gt;off&lt;/span&gt;&lt;/div&gt;&lt;div style=&quot;line-height: 116%;&quot;&gt;&lt;span style=&quot;color: #a626a4;&quot;&gt;set&lt;/span&gt; &lt;span style=&quot;color: #e45649;&quot;&gt;count&lt;/span&gt;=&lt;span style=&quot;color: #986801;&quot;&gt;0&lt;/span&gt;&lt;/div&gt;&lt;br&gt;&lt;div style=&quot;line-height: 116%;&quot;&gt;:&lt;span style=&quot;color: #4078f2;&quot;&gt;loop&lt;/span&gt;&lt;/div&gt;&lt;div style=&quot;line-height: 116%;&quot;&gt;&lt;span style=&quot;color: #a626a4;&quot;&gt;if&lt;/span&gt; &lt;span style=&quot;color: #e45649;&quot;&gt;%count%&lt;/span&gt; geq &lt;span style=&quot;color: #986801;&quot;&gt;2&lt;/span&gt; &lt;span style=&quot;color: #a626a4;&quot;&gt;goto&lt;/span&gt; end&lt;/div&gt;&lt;br&gt;&lt;div style=&quot;line-height: 116%;&quot;&gt;&lt;span style=&quot;color: #a626a4;&quot;&gt;set&lt;/span&gt; /p &lt;span style=&quot;color: #e45649;&quot;&gt;choice&lt;/span&gt;=Press 1 to create MIS directory or 2 to create CS file: &lt;/div&gt;&lt;br&gt;&lt;div style=&quot;line-height: 116%;&quot;&gt;&lt;span style=&quot;color: #a626a4;&quot;&gt;if&lt;/span&gt; &lt;span style=&quot;color: #50a14f;&quot;&gt;&quot;%&lt;/span&gt;&lt;span style=&quot;color: #e45649;&quot;&gt;choice&lt;/span&gt;&lt;span style=&quot;color: #50a14f;&quot;&gt;%&quot;&lt;/span&gt;==&lt;span style=&quot;color: #50a14f;&quot;&gt;&quot;1&quot;&lt;/span&gt; (&lt;/div&gt;&lt;div style=&quot;line-height: 116%;&quot;&gt;&amp;nbsp; &amp;nbsp; &lt;span style=&quot;color: #a626a4;&quot;&gt;if&lt;/span&gt; not &lt;span style=&quot;color: #4078f2;&quot;&gt;exist&lt;/span&gt; MIS &lt;span style=&quot;color: #a626a4;&quot;&gt;mkdir&lt;/span&gt; MIS&lt;/div&gt;&lt;div style=&quot;line-height: 116%;&quot;&gt;&amp;nbsp; &amp;nbsp; &lt;span style=&quot;color: #a626a4;&quot;&gt;echo&lt;/span&gt; MIS directory created successfully!&lt;/div&gt;&lt;div style=&quot;line-height: 116%;&quot;&gt;)&lt;/div&gt;&lt;br&gt;&lt;div style=&quot;line-height: 116%;&quot;&gt;&lt;span style=&quot;color: #a626a4;&quot;&gt;if&lt;/span&gt; &lt;span style=&quot;color: #50a14f;&quot;&gt;&quot;%&lt;/span&gt;&lt;span style=&quot;color: #e45649;&quot;&gt;choice&lt;/span&gt;&lt;span style=&quot;color: #50a14f;&quot;&gt;%&quot;&lt;/span&gt;==&lt;span style=&quot;color: #50a14f;&quot;&gt;&quot;2&quot;&lt;/span&gt; (&lt;/div&gt;&lt;div style=&quot;line-height: 116%;&quot;&gt;&amp;nbsp; &amp;nbsp; &lt;span style=&quot;color: #a626a4;&quot;&gt;type&lt;/span&gt; &lt;span style=&quot;color: #986801;&quot;&gt;nul&lt;/span&gt; &amp;gt; CS&lt;/div&gt;&lt;div style=&quot;line-height: 116%;&quot;&gt;&amp;nbsp; &amp;nbsp; &lt;span style=&quot;color: #a626a4;&quot;&gt;echo&lt;/span&gt; CS file created successfully!&lt;/div&gt;&lt;div style=&quot;line-height: 116%;&quot;&gt;)&lt;/div&gt;&lt;br&gt;&lt;div style=&quot;line-height: 116%;&quot;&gt;&lt;span style=&quot;color: #a626a4;&quot;&gt;set&lt;/span&gt; /a &lt;span style=&quot;color: #e45649;&quot;&gt;count&lt;/span&gt;+=&lt;span style=&quot;color: #986801;&quot;&gt;1&lt;/span&gt;&lt;/div&gt;&lt;div style=&quot;line-height: 116%;&quot;&gt;&lt;span style=&quot;color: #a626a4;&quot;&gt;goto&lt;/span&gt; loop&lt;/div&gt;&lt;br&gt;&lt;div style=&quot;line-height: 116%;&quot;&gt;:&lt;span style=&quot;color: #4078f2;&quot;&gt;end&lt;/span&gt;&lt;/div&gt;&lt;div style=&quot;line-height: 116%;&quot;&gt;&lt;span style=&quot;color: #a626a4;&quot;&gt;echo&lt;/span&gt; Program completed successfully!&lt;/div&gt;&lt;div style=&quot;line-height: 116%;&quot;&gt;&lt;span style=&quot;color: #a626a4;&quot;&gt;pause&lt;/span&gt;&lt;/div&gt;&lt;/div&gt;&lt;/div&gt;&lt;/div&gt;&lt;/div&gt;&lt;/div&gt;&lt;/div&gt;&lt;/div&gt;&lt;/div&gt;&lt;/div&gt;&lt;/div&gt;&lt;/div&gt;&lt;/div&gt;&lt;/div&gt;" style="rounded=1;whiteSpace=wrap;html=1;arcSize=3;strokeWidth=2;fillColor=#eeeeee;strokeColor=#000000;align=left;verticalAlign=top;spacing=15;spacingTop=31;fontSize=14;fontFamily=Mina;fontStyle=1;labelBackgroundColor=none;" vertex="1" parent="e7Vy6nSdRx5YWv6xTN5V-236">
          <mxGeometry width="560" height="456" as="geometry" />
        </mxCell>
        <mxCell id="e7Vy6nSdRx5YWv6xTN5V-238" value="" style="group;rounded=1;" vertex="1" connectable="0" parent="e7Vy6nSdRx5YWv6xTN5V-236">
          <mxGeometry x="13" y="19.895652173912367" width="72" height="21.885217391304348" as="geometry" />
        </mxCell>
        <mxCell id="e7Vy6nSdRx5YWv6xTN5V-239" value="&amp;nbsp; &amp;nbsp; &amp;nbsp; &amp;nbsp; &amp;nbsp; &amp;nbsp; &amp;nbsp; " style="strokeWidth=2;html=1;shape=mxgraph.flowchart.start_2;whiteSpace=wrap;fillColor=#ff5f56;strokeColor=none;rounded=1;" vertex="1" parent="e7Vy6nSdRx5YWv6xTN5V-238">
          <mxGeometry x="2" y="1.989565217391304" width="16" height="16" as="geometry" />
        </mxCell>
        <mxCell id="e7Vy6nSdRx5YWv6xTN5V-240" value="&amp;nbsp; &amp;nbsp; &amp;nbsp; &amp;nbsp; &amp;nbsp; &amp;nbsp; &amp;nbsp; " style="strokeWidth=2;html=1;shape=mxgraph.flowchart.start_2;whiteSpace=wrap;fillColor=#ffbd2e;strokeColor=none;rounded=1;" vertex="1" parent="e7Vy6nSdRx5YWv6xTN5V-238">
          <mxGeometry x="27" y="1.989565217391304" width="16" height="16" as="geometry" />
        </mxCell>
        <mxCell id="e7Vy6nSdRx5YWv6xTN5V-241" value="&amp;nbsp; &amp;nbsp; &amp;nbsp; &amp;nbsp; &amp;nbsp; &amp;nbsp; &amp;nbsp; " style="strokeWidth=2;html=1;shape=mxgraph.flowchart.start_2;whiteSpace=wrap;fillColor=#1fa831;strokeColor=none;rounded=1;" vertex="1" parent="e7Vy6nSdRx5YWv6xTN5V-238">
          <mxGeometry x="52" y="1.989565217391304" width="16" height="16" as="geometry" />
        </mxCell>
        <mxCell id="e7Vy6nSdRx5YWv6xTN5V-242" value="Write a simple script to create a new directory called MIS if the user presses 1 or create a file called CS if the user presses 2 and repeat the program 2 times by using while loop." style="shape=hexagon;perimeter=hexagonPerimeter2;whiteSpace=wrap;fixedSize=1;size=-29.319999999999936;fillColor=#fff2cc;strokeColor=#000000;fontFamily=Mina;fontSize=16;strokeWidth=2;align=center;spacingLeft=0;spacingBottom=5;fillStyle=hachure;fontStyle=1;rounded=1;arcSize=14;fontSource=https%3A%2F%2Ffonts.googleapis.com%2Fcss%3Ffamily%3DMina;" vertex="1" parent="1">
          <mxGeometry x="69.32" y="4690" width="680.68" height="60" as="geometry" />
        </mxCell>
        <mxCell id="e7Vy6nSdRx5YWv6xTN5V-243" value="" style="group;flipH=0;strokeColor=none;" vertex="1" connectable="0" parent="1">
          <mxGeometry x="249" y="5350" width="330" height="200" as="geometry" />
        </mxCell>
        <mxCell id="e7Vy6nSdRx5YWv6xTN5V-244" value="&lt;div style=&quot;&quot;&gt;&lt;div style=&quot;line-height: 14px;&quot;&gt;&lt;div style=&quot;line-height: 19px;&quot;&gt;&lt;div style=&quot;line-height: 19px;&quot;&gt;&lt;div style=&quot;line-height: 19px;&quot;&gt;&lt;div style=&quot;line-height: 19px;&quot;&gt;&lt;div style=&quot;line-height: 19px;&quot;&gt;&lt;div style=&quot;line-height: 19px;&quot;&gt;&lt;div style=&quot;line-height: 19px;&quot;&gt;&lt;div style=&quot;line-height: 19px;&quot;&gt;&lt;div style=&quot;line-height: 19px;&quot;&gt;&lt;div style=&quot;line-height: 19px;&quot;&gt;&lt;div style=&quot;line-height: 116%;&quot;&gt;&lt;div style=&quot;line-height: 116%;&quot;&gt;&lt;div style=&quot;color: rgb(56, 58, 66); font-family: Consolas, &amp;quot;Courier New&amp;quot;, monospace; line-height: 19px; white-space: pre;&quot;&gt;&lt;div&gt;@&lt;span style=&quot;color: #a626a4;&quot;&gt;echo&lt;/span&gt; &lt;span style=&quot;color: #4078f2;&quot;&gt;off&lt;/span&gt;&lt;/div&gt;&lt;div&gt;&lt;span style=&quot;color: #a626a4;&quot;&gt;cls&lt;/span&gt;&lt;/div&gt;&lt;div&gt;&lt;span style=&quot;color: #a626a4;&quot;&gt;start&lt;/span&gt; firefox&lt;/div&gt;&lt;div&gt;&lt;span style=&quot;color: #a626a4;&quot;&gt;start&lt;/span&gt; calc&lt;/div&gt;&lt;div&gt;&lt;span style=&quot;color: #a626a4;&quot;&gt;dir&lt;/span&gt; C:\&lt;/div&gt;&lt;div&gt;&lt;span style=&quot;color: #a626a4;&quot;&gt;echo&lt;/span&gt; Well Done Hanafi!&lt;/div&gt;&lt;div&gt;&lt;span style=&quot;color: #a626a4;&quot;&gt;pause&lt;/span&gt;&lt;/div&gt;&lt;/div&gt;&lt;/div&gt;&lt;/div&gt;&lt;/div&gt;&lt;/div&gt;&lt;/div&gt;&lt;/div&gt;&lt;/div&gt;&lt;/div&gt;&lt;/div&gt;&lt;/div&gt;&lt;/div&gt;&lt;/div&gt;&lt;/div&gt;&lt;/div&gt;" style="rounded=1;whiteSpace=wrap;html=1;arcSize=3;strokeWidth=2;fillColor=#eeeeee;strokeColor=#000000;align=left;verticalAlign=top;spacing=15;spacingTop=31;fontSize=14;fontFamily=Mina;fontStyle=1;labelBackgroundColor=none;" vertex="1" parent="e7Vy6nSdRx5YWv6xTN5V-243">
          <mxGeometry width="330" height="200" as="geometry" />
        </mxCell>
        <mxCell id="e7Vy6nSdRx5YWv6xTN5V-245" value="" style="group;rounded=1;" vertex="1" connectable="0" parent="e7Vy6nSdRx5YWv6xTN5V-243">
          <mxGeometry x="13" y="19.895652173912367" width="72" height="21.885217391304348" as="geometry" />
        </mxCell>
        <mxCell id="e7Vy6nSdRx5YWv6xTN5V-246" value="&amp;nbsp; &amp;nbsp; &amp;nbsp; &amp;nbsp; &amp;nbsp; &amp;nbsp; &amp;nbsp; " style="strokeWidth=2;html=1;shape=mxgraph.flowchart.start_2;whiteSpace=wrap;fillColor=#ff5f56;strokeColor=none;rounded=1;" vertex="1" parent="e7Vy6nSdRx5YWv6xTN5V-245">
          <mxGeometry x="2" y="1.989565217391304" width="16" height="16" as="geometry" />
        </mxCell>
        <mxCell id="e7Vy6nSdRx5YWv6xTN5V-247" value="&amp;nbsp; &amp;nbsp; &amp;nbsp; &amp;nbsp; &amp;nbsp; &amp;nbsp; &amp;nbsp; " style="strokeWidth=2;html=1;shape=mxgraph.flowchart.start_2;whiteSpace=wrap;fillColor=#ffbd2e;strokeColor=none;rounded=1;" vertex="1" parent="e7Vy6nSdRx5YWv6xTN5V-245">
          <mxGeometry x="27" y="1.989565217391304" width="16" height="16" as="geometry" />
        </mxCell>
        <mxCell id="e7Vy6nSdRx5YWv6xTN5V-248" value="&amp;nbsp; &amp;nbsp; &amp;nbsp; &amp;nbsp; &amp;nbsp; &amp;nbsp; &amp;nbsp; " style="strokeWidth=2;html=1;shape=mxgraph.flowchart.start_2;whiteSpace=wrap;fillColor=#1fa831;strokeColor=none;rounded=1;" vertex="1" parent="e7Vy6nSdRx5YWv6xTN5V-245">
          <mxGeometry x="52" y="1.989565217391304" width="16" height="16" as="geometry" />
        </mxCell>
        <mxCell id="e7Vy6nSdRx5YWv6xTN5V-249" value="Create a simple batch file that clears the screen, open fire fox and calculator, and list the content of the C drive then print this message “Well Done + your name “." style="shape=hexagon;perimeter=hexagonPerimeter2;whiteSpace=wrap;fixedSize=1;size=-29.319999999999936;fillColor=#dae8fc;strokeColor=#000000;fontFamily=Mina;fontSize=16;strokeWidth=2;align=center;spacingLeft=0;spacingBottom=5;fillStyle=hachure;fontStyle=1;rounded=1;arcSize=14;fontSource=https%3A%2F%2Ffonts.googleapis.com%2Fcss%3Ffamily%3DMina;" vertex="1" parent="1">
          <mxGeometry x="73" y="5270" width="680.68" height="60" as="geometry" />
        </mxCell>
        <mxCell id="e7Vy6nSdRx5YWv6xTN5V-250" value="Name : Mohamed Mahmoud Hanafi&lt;div style=&quot;font-size: 18px;&quot;&gt;Code : 1230240&lt;/div&gt;&lt;div style=&quot;font-size: 18px;&quot;&gt;Class : 8&lt;/div&gt;" style="text;html=1;align=left;verticalAlign=middle;whiteSpace=wrap;rounded=0;fontFamily=Oxanium;fontStyle=1;fontSize=18;fontSource=https://fonts.googleapis.com/css?family=Oxanium;spacing=5;" vertex="1" parent="1">
          <mxGeometry x="318" y="5670" width="372.86" height="70" as="geometry" />
        </mxCell>
        <mxCell id="e7Vy6nSdRx5YWv6xTN5V-251" value="" style="triangle;whiteSpace=wrap;html=1;dashed=0;direction=south;fillColor=#e51400;fontColor=#ffffff;strokeColor=#000000;strokeWidth=2;fontFamily=Kufam;fontSource=https%3A%2F%2Ffonts.googleapis.com%2Fcss%3Ffamily%3DKufam;verticalAlign=top;spacingTop=5;fontStyle=1;fontSize=16;" vertex="1" parent="1">
          <mxGeometry x="231" y="5675.94" width="87" height="68.13" as="geometry" />
        </mxCell>
      </root>
    </mxGraphModel>
  </diagram>
</mxfile>
